<svg width="1105" height="651" viewBox="0 0 1105 651" fill="none" xmlns="http://www.w3.org/2000/svg">
<path d="M349.498 0L349.498 650.958M836.144 1.17852e-10L836.144 650.958M432.094 0L432.094 650.958M916.508 1.17852e-10L916.508 650.958M40.1722 0L40.1722 650.958M512.457 0L512.457 650.958M996.872 1.17852e-10L996.871 650.958M108.407 0L108.407 650.958M592.821 0L592.821 650.958M1065.82 2.27849e-09L1065.82 650.958M188.771 0L188.77 650.958M673.185 0L673.185 650.958M269.134 0L269.134 650.958M755.781 1.17852e-10L755.781 650.958M1105 213.537L6.47608e-09 213.537M1105 499.809L6.47608e-09 499.809M1105 260.834L6.47608e-09 260.834M1105 548.351L5.88693e-09 548.351M1105 23.1039L5.05116e-09 23.1038M1105 309.376L6.47608e-09 309.376M1105 594.404L5.88693e-09 594.404M1105 71.6457L6.47608e-09 71.6456M1105 356.673L6.47608e-09 356.673M1105 642.945L0 642.945M1105 118.943L6.47608e-09 118.943M1105 403.97L6.47608e-09 403.97M1105 164.995L6.47608e-09 164.995M1105 452.512L6.08331e-09 452.512" stroke="#E9C6FF" stroke-opacity="0.25"/>
</svg>
