<svg width="500" height="500" viewBox="0 0 500 500" fill="none" xmlns="http://www.w3.org/2000/svg">
<path d="M39.18 319.29C45.89 299.62 64.14 286.2 84.86 279.91C90.25 278.27 96.03 277.53 100.88 274.73C112.47 268.04 116 253.2 116.33 240.19C118.17 167.44 190.75 157.6 204.68 158.89C259.95 164 252.51 206.93 284.81 230.89C305.68 246.37 338.4 221.8 361.48 233.86C381.07 244.09 381 273.06 398.92 285.81C411.77 294.96 421.7 282.33 443.59 301.84C471.75 326.94 479.34 396.14 440.33 435.76L77.19 437.32C63.82 435.06 12.82 396.62 39.19 319.29H39.18Z" fill="#E8E1FF"/>
<path d="M352.92 403.56C364.09 384.76 377 366.99 391.43 350.55C393.6 357.52 397.28 364.01 402.16 369.44C404.27 362.86 395.49 353.04 398.5 346.83C399.76 344.23 444.45 319.28 478.72 313.38C476.68 338.47 471.7 362.6 460.42 387.77C455.99 385.19 448.35 385.89 443.92 383.31C446.99 390.26 452.79 393.27 454.95 397.38C437.58 416.88 412.42 437.64 404.24 440.62C387.14 446.85 368.6 442.63 351.94 437.06C343.05 434.09 340.86 433.51 343.54 424.23C345.63 417.01 349.09 409.99 352.91 403.55L352.92 403.56Z" fill="#D2BFFF"/>
<path d="M364.87 439.31C390.07 398.28 422.68 362.12 460.92 332.86C461.93 332.09 460.93 330.35 459.91 331.13C421.38 360.61 388.53 396.95 363.14 438.3C362.46 439.4 364.19 440.41 364.87 439.31Z" fill="#F4F0FF"/>
<path d="M365.93 399C370.76 404.76 373.46 411.52 373.95 419.03C373.98 419.52 374.39 420.1 374.95 420.03C387.79 418.38 400.68 417.97 413.6 418.79C414.89 418.87 414.88 416.87 413.6 416.79C401.86 416.04 390.49 416.92 378.79 417.56C376.16 417.7 376.25 417.94 375.62 415.53C374.99 413.14 374.68 410.79 373.81 408.45C372.32 404.43 370.09 400.87 367.34 397.59C366.51 396.6 365.1 398.02 365.93 399Z" fill="#F4F0FF"/>
<path d="M386.43 373.84C390.39 380.63 392.87 387.91 393.82 395.72C393.88 396.25 394.23 396.73 394.82 396.72C405.35 396.5 415.84 396.97 426.31 398.12C427.59 398.26 427.58 396.26 426.31 396.12C421.08 395.55 415.84 395.11 410.59 394.88C407.96 394.76 405.34 394.69 402.71 394.67C401.1 394.65 397.52 395.35 396.21 394.36C394.37 392.98 394.08 386.3 393.26 383.86C391.96 380 390.22 376.36 388.17 372.84C387.52 371.73 385.79 372.73 386.44 373.85L386.43 373.84Z" fill="#F4F0FF"/>
<path d="M412.78 349.72C415.39 355.63 417.02 361.73 417.7 368.15C417.77 368.78 418.29 369.31 418.97 369.11C430.71 365.7 442.62 363.03 454.7 361.09C455.97 360.89 455.43 358.96 454.17 359.16C442.09 361.09 430.18 363.77 418.44 367.18C418.86 367.5 419.28 367.82 419.71 368.14C418.99 361.35 417.28 354.94 414.52 348.7C414 347.53 412.28 348.54 412.79 349.71L412.78 349.72Z" fill="#F4F0FF"/>
<path d="M317.63 273C318.89 259.16 320.83 245.02 327.3 232.72C333.77 220.41 345.64 210.12 359.5 209.1C373.12 208.09 388.53 216.43 395.74 228.03C402.95 239.63 402.59 253.94 401.1 267.51C399.52 281.91 394.51 295.68 389.55 309.29C374.91 349.4 361.39 378.48 336.74 413.35C311.37 449.23 282.25 444.3 296.43 426.03C324.63 378 312.75 326.48 317.63 273.01V273Z" fill="#B7A5EF"/>
<path d="M305.62 442.74C320.28 420.95 330.21 395.69 339.06 371.11C350.26 340.02 359.34 307.96 365.02 275.38C367.74 259.75 369.69 243.92 369.74 228.04C369.74 226.75 367.74 226.75 367.74 228.04C367.64 258.28 361.3 288.52 353.62 317.65C345.65 347.87 335.62 377.76 322.82 406.3C317.35 418.51 311.37 430.62 303.89 441.74C303.17 442.81 304.9 443.81 305.62 442.75V442.74Z" fill="#F4F0FF"/>
<path d="M339.75 233.93C347.12 247.16 353.99 260.82 364.38 272.01C364.68 272.34 365.22 272.38 365.59 272.17C376.02 266.26 387.51 262.57 397.36 255.55C398.4 254.81 397.4 253.07 396.35 253.82C391.3 257.42 385.75 260.26 380.19 262.98C375.86 265.09 371.01 268.23 366.36 269.5C364.64 269.97 365.93 270.14 364.62 269.35C363.54 268.7 362.09 266.44 361.31 265.46C358.49 261.94 355.98 258.18 353.6 254.35C349.27 247.37 345.46 240.09 341.46 232.92C340.83 231.8 339.11 232.8 339.73 233.93H339.75Z" fill="#F4F0FF"/>
<path d="M325.54 275.29C336.31 283.64 344.96 294.67 354.46 304.37C355.12 305.05 356.17 306.56 357.16 306.82C359.53 307.44 364.58 303.45 366.59 302.33C375.79 297.19 384.27 291.08 391.77 283.66C392.69 282.75 391.27 281.34 390.36 282.25C383.38 289.15 375.55 294.91 367.04 299.78C364.99 300.96 359.09 305.18 357.37 304.46C355.96 303.86 354.26 301.28 353.22 300.18C344.8 291.26 336.68 281.42 326.95 273.88C325.94 273.1 324.52 274.51 325.54 275.29Z" fill="#F4F0FF"/>
<path d="M98.9698 426.15C85.3898 420.91 56.7198 408.66 64.9398 399.92C68.6998 397.48 73.3698 396.49 77.7898 397.21C80.1898 394.25 75.5898 390.74 71.9898 389.47C62.3998 386.08 25.6198 374.47 35.4898 364.03C38.7198 360.15 51.9098 361.39 51.2898 360.82C40.4898 351.02 34.4398 345 25.9798 332C20.6198 323.76 16.0298 307.39 25.3698 304.49C31.3598 304.36 36.1598 309.32 39.5398 314.27C42.9298 319.21 48.5298 328.12 54.5698 333.81C54.2898 329.38 52.0398 305.92 64.7398 311.27C72.6798 314.62 76.2598 338.03 82.9898 346.64C83.8898 347.79 85.3498 349.04 86.6198 348.33C87.4098 347.89 87.6598 346.91 88.0498 346.09C90.3598 341.18 98.3198 342.27 101.56 346.62C104.8 350.97 104.9 356.79 105.58 362.17C106.26 367.55 108.21 373.55 113.19 375.71C113.9 372.6 114.69 369.34 116.84 366.98C118.99 364.63 122.99 363.63 125.39 365.73C126.55 366.74 127.12 368.25 127.64 369.7C136.05 393.35 153.17 423.21 162.93 445.41C161.02 443.93 109.59 430.25 98.9698 426.16V426.15Z" fill="#B7A5EF"/>
<path d="M30.6698 323.35C67.9198 370.76 115.26 408.84 162.23 446.11C163.23 446.9 164.65 445.5 163.64 444.7C116.67 407.43 69.3298 369.35 32.0798 321.94C31.2898 320.93 29.8798 322.35 30.6698 323.35Z" fill="#F4F0FF"/>
<path d="M45.8 370.64C56.27 373.08 67.17 374.31 77.92 374.34C78.52 374.34 79.12 373.69 78.88 373.07C73.96 360.4 68.46 347.04 66.46 333.54C66.27 332.27 64.35 332.81 64.53 334.07C66.53 347.57 72.02 360.93 76.95 373.6C77.27 373.18 77.59 372.76 77.91 372.33C67.33 372.3 56.62 371.1 46.32 368.7C45.07 368.41 44.53 370.34 45.79 370.63L45.8 370.64Z" fill="#F4F0FF"/>
<path d="M76.0097 406.8C82.7997 407.53 89.5597 408.51 96.3897 408.84C102.35 409.13 109.19 409.43 114.67 406.66C115.16 406.41 115.28 405.74 115.03 405.29C106.82 390.52 102.81 373.63 96.0897 358.17C95.5797 356.99 93.8497 358.01 94.3597 359.18C101.09 374.65 105.08 391.51 113.3 406.3C113.42 405.84 113.54 405.39 113.66 404.93C107.83 407.87 100.1 407.11 93.7997 406.68C87.8397 406.27 81.9397 405.43 75.9997 404.79C74.7197 404.65 74.7297 406.65 75.9997 406.79L76.0097 406.8Z" fill="#F4F0FF"/>
<path d="M186.18 399.96C175.16 392.98 164.31 387.91 153.29 380.94C138.62 371.65 47.1696 319.3 54.1096 242.14C55.3396 228.48 63.0496 212.17 76.3396 208.78C115.67 198.75 115.59 248.47 117.66 259.21C122.4 283.79 135.25 306.22 151.11 325.59C166.97 344.96 185.86 361.58 204.55 378.24C208.63 381.87 213.07 386.39 212.53 391.82C212.33 393.8 211.47 395.65 210.62 397.45C205.72 407.81 193.78 404.79 186.17 399.97L186.18 399.96Z" fill="#D2BFFF"/>
<path d="M77.8298 221.49C76.6498 236.58 78.4498 250.29 83.6998 264.43C87.9698 275.94 93.2098 287.08 99.3198 297.73C113.49 322.46 132.24 344.45 153.95 362.87C167.94 374.74 183.13 385.11 199.09 394.15C200.21 394.79 201.22 393.06 200.1 392.42C150.67 364.43 108.98 322.32 87.6298 269.1C85.1298 262.87 82.5798 256.44 81.1298 249.87C79.0798 240.61 79.0898 230.9 79.8198 221.49C79.9198 220.21 77.9198 220.21 77.8198 221.49H77.8298Z" fill="#F4F0FF"/>
<path d="M59.8494 240.67C66.7694 247.55 73.8594 253.88 82.2194 258.96C82.7894 259.31 83.4994 258.96 83.6894 258.36C86.6594 248.77 91.3594 239.27 97.8494 231.57C98.6694 230.59 97.2694 229.17 96.4394 230.16C89.7094 238.14 84.8494 247.88 81.7594 257.83C82.2494 257.63 82.7394 257.43 83.2294 257.23C75.0194 252.24 68.0494 246 61.2594 239.25C60.3494 238.34 58.9294 239.76 59.8494 240.66V240.67Z" fill="#F4F0FF"/>
<path d="M64.7494 275.83C70.9494 278.84 77.0694 282.03 83.2594 285.08C86.1694 286.51 89.0794 287.96 92.0494 289.26C93.1694 289.75 94.7494 290.76 96.0194 290.61C96.4494 290.56 96.8694 290.34 96.9794 289.88C99.4694 279.53 102.119 269.09 105.869 259.13C106.319 257.92 104.389 257.4 103.939 258.6C101.429 265.28 99.5094 272.18 97.6694 279.08C96.9594 281.74 96.2694 284.41 95.6094 287.09C95.4494 287.72 95.2994 288.36 95.1394 288.99C95.0994 289.14 96.1994 289.12 95.2794 288.45C93.7394 287.34 91.2694 286.74 89.5394 285.92C86.7394 284.59 83.9494 283.21 81.1794 281.83C76.0394 279.27 70.9394 276.63 65.7694 274.12C64.6194 273.56 63.5994 275.28 64.7594 275.85L64.7494 275.83Z" fill="#F4F0FF"/>
<path d="M78.7697 308.25C89.8697 313.05 101.31 317.43 113.09 320.26C113.61 320.39 114.18 320.1 114.32 319.56C116.97 309.65 118.1 299.48 118.77 289.26C118.85 287.97 116.85 287.98 116.77 289.26C116.12 299.3 115 309.29 112.4 319.02C112.81 318.79 113.22 318.55 113.63 318.32C102.03 315.53 90.7297 311.24 79.7897 306.51C78.6197 306 77.5997 307.73 78.7797 308.24L78.7697 308.25Z" fill="#F4F0FF"/>
<path d="M73.6199 353.83C71.7399 343.31 71.2799 331.62 77.3699 322.84C82.4299 315.54 91.2399 311.61 100.01 310.23C106.7 309.17 187.37 302.62 190.33 305.56C193.06 308.28 201.53 313.29 204.92 327.38C208.99 344.29 221.32 416.44 217.84 431.54C208.21 433.94 116.19 434.4 101.87 434.53C101.28 429.17 76.6699 370.97 73.6099 353.83H73.6199Z" fill="#363C89"/>
<path d="M230.28 282.66C252.61 287.74 261.4 334.51 264.79 345.87C268.51 358.29 273.82 370.23 280.57 381.3C283.96 386.87 287.8 393.82 284.5 399.44C282.41 402.99 278.03 404.57 273.92 404.76C265.73 405.14 257.83 401.02 251.98 395.27C246.13 389.52 242.06 382.25 238.28 374.97C227.11 353.42 220.55 337.11 215.45 313.38C215.17 312.08 213.06 278.73 230.28 282.65V282.66Z" fill="#D8702A"/>
<path d="M278.86 409.65C281.71 412.56 293.89 414.04 294.89 413.35C293.83 407.01 287.6 410.61 286.83 405.72C288.72 404.4 290.97 404.8 292.83 404.8C294.45 404.8 295.96 406.24 296.65 407.98C297.69 410.61 297.3 411.43 297.71 414.23C298.11 416.99 300.91 419.01 300.92 417.25C300.92 414.02 300.92 409.02 300.93 405.78C301.73 408.66 302.29 417.75 306.17 416.89C307.11 412.54 305.1 408.71 305.08 404.26C306.18 408.04 306.17 416.89 310.04 415.64C310.2 411.58 308.69 407.48 308.85 403.42C309.72 407 311.1 414.76 313.24 413.51C313.89 409.6 312.82 405.47 311.98 401.6C311.47 399.25 311.59 396.97 309.88 395.27C308.83 394.23 293.99 391.35 287.84 391.71C283.96 391.94 279.02 391.34 276.57 393.29C267.06 400.84 275.66 406.39 278.86 409.65Z" fill="#FFBB8E"/>
<path d="M128.96 328.09C134.04 352.8 150.81 355.96 153.94 380.99C156.02 397.69 149.04 418.39 144.29 434.54C182.89 435.9 221.97 435.19 250.5 433.96C249.46 410.57 240.11 379.5 242.28 356.19C243.52 342.82 246.47 330.42 244.58 317.13C242.69 303.84 236.95 284.59 230.29 282.68C217.35 278.96 206.47 275.61 191.56 273.99C185.05 273.28 165.93 271.29 149.44 273.61C139.08 275.07 130.3 277.01 126.58 278.52C101.98 288.5 124.57 306.73 128.96 328.1V328.09Z" fill="#ED7C2A"/>
<path d="M192.78 301.31C195.22 301.13 205.68 282.43 204.88 280.12C202.07 273.69 196.88 280.18 195.2 275.42C193.86 271.61 200.47 254.28 196.76 249.84C194.54 247.19 172.4 238.98 168.47 246.47C166.62 250 159.67 265.84 159.67 269.96C159.67 272.36 185.96 301.82 192.79 301.31H192.78Z" fill="#EAA27A"/>
<path d="M212.63 393.28C214.05 394.95 216.6 400.64 218.19 405.45C218.72 407.04 219.47 412.11 219.47 412.11C215.45 414.05 214.02 404.29 212.64 401.54C212.23 404.56 212.82 415.81 211.76 415.71C207.89 414.75 208.3 406.29 208.59 402.24C208.24 404.93 207.49 407.37 206.7 409.96C205.89 412.61 204.94 415.1 203.68 416.39C201.19 415.98 202.86 408.2 203.31 404.73C201.89 410.7 198.24 416.89 198.24 416.89C195.73 416.89 195.95 413.28 196.76 411.23C197.57 409.17 199.55 406.66 198.38 404.79C198.63 406.59 194.97 409.19 193.22 409.67C191.47 410.16 186.57 408.46 184.82 407.96C176.47 405.58 157.14 406.43 159.72 397.13C161.49 390.76 169.62 385.49 175.48 386.38C180.63 387.16 187.82 393.27 193.62 393.27C204.01 393.27 208.48 391.68 212.64 393.27L212.63 393.28Z" fill="#FFBB8E"/>
<path d="M185.5 388.45C175.03 382.52 131.45 363.4 131.07 362.43C129.61 358.75 150.34 323.99 151.65 313.73C152.95 303.47 152.76 294.5 145.42 287.21C135.66 277.52 126.58 278.49 126.58 278.49C119.8 280.86 118.01 283.1 114.55 286.46C109.64 291.22 106.81 297.67 104.09 303.94C96.0801 322.46 88.0301 341.09 83.2901 360.71C81.9901 366.07 80.9801 371.85 82.9501 377C84.2801 380.46 86.8601 383.32 89.7201 385.68C101.26 395.23 116.99 397.53 131.84 399.46C147.25 401.46 163.23 405.94 178.64 407.94C181.81 408.35 188.83 390.31 185.51 388.43L185.5 388.45Z" fill="#D8702A"/>
<path d="M149.36 274.72C149.35 278.82 152.6 282.71 154.31 286.43C157.2 292.72 160.09 299.02 162.98 305.31C166.68 300.47 170.38 295.62 174.08 290.78C179.32 296.57 185.9 301.15 193.15 304.04C196.59 299.59 200.03 295.14 203.48 290.69C204.88 294.88 206.74 298.92 209.01 302.71C211.02 292.88 212.74 281.68 206.72 273.66C203.87 269.86 199.43 267.28 194.71 266.68C192.9 272.68 196.97 278.88 196.93 285.14C196.89 290.23 194.16 294.86 191.52 299.21C188.07 297.03 184.75 294.65 181.58 292.08C179.99 290.8 178.4 289.4 177.58 287.53C176.88 285.93 176.8 284.08 175.88 282.6C174.93 281.08 173.25 280.2 171.87 279.05C166.23 274.29 162.64 265.02 162.64 259.79C158.27 259.79 149.36 266.87 149.34 274.72H149.36Z" fill="#D8702A"/>
<path d="M193.16 308.76C198.71 334.78 203.89 361.24 202.33 387.98C202.26 389.27 204.26 389.26 204.33 387.98C205.89 361.07 200.67 334.42 195.08 308.23C194.81 306.97 192.88 307.5 193.15 308.76H193.16Z" fill="#D8702A"/>
<path d="M203.66 232.29C202.99 236.43 203.21 240.92 205.51 244.43C207.81 247.93 212.63 249.98 216.39 248.13C221.23 245.76 221.69 239.12 221.1 233.77C220.73 230.39 220.14 226.87 218.1 224.16C211.27 215.1 204.75 225.46 203.65 232.29H203.66Z" fill="#4B4DF6"/>
<path d="M171.26 250.25C175.43 258.77 183.56 265.56 192.95 266.92C196.67 267.46 200.69 267.09 203.79 264.97C205.86 263.55 207.38 261.45 208.72 259.33C214.71 249.85 218.18 238.8 218.69 227.59C219.09 218.75 217.04 208.8 209.7 203.86C204.12 200.11 196.9 200.17 190.18 200.38C186.72 200.48 183.13 200.62 180.04 202.2C176.84 203.84 174.58 206.84 172.46 209.75C164.76 220.31 165.53 238.56 171.25 250.25H171.26Z" fill="#FFBB8E"/>
<path d="M192.04 253.86C194.92 256.56 199.05 257.42 202.73 255.92C203.91 255.44 203.39 253.51 202.2 253.99C199.17 255.22 195.86 254.7 193.46 252.44C192.52 251.56 191.11 252.97 192.05 253.85L192.04 253.86Z" fill="#E28E60"/>
<path d="M187.6 214.33C188.17 215.42 188.19 216.71 188.52 217.9C189.25 220.45 191.6 222.46 194.24 222.77C196.87 223.08 199.63 221.68 200.93 219.37C201.39 218.56 201.7 217.62 202.41 217.02C204.01 215.67 206.51 216.82 207.9 218.38C209.29 219.95 210.17 222.41 212.22 222.86C218.11 224.16 219.47 220.04 220.38 216.23C221.27 218.91 227.46 217.92 229.35 215.82C231.23 213.72 230.94 210.29 229.31 207.98C227.69 205.67 225.05 204.3 222.41 203.31C221.44 202.95 220.43 202.61 219.66 201.92C216.91 199.41 219.24 194.81 218.41 191.18C217.48 187.13 212.06 185.16 208.41 187.15C205.69 188.64 203.95 191.72 201 192.68C200.91 192 191.42 188.31 191.31 190.85C191.31 190.85 187.26 188.03 180.88 189.64C177.78 190.42 174.91 193.25 174.88 196.45C171.99 195.84 171.41 195.9 168.58 196.74C165.75 197.58 163.18 199.91 162.88 202.86C162.77 203.91 162.95 205 162.71 206.03C162.08 208.69 158.8 209.63 158 211.98C156.85 215.41 158.36 218.54 158.84 222.17C159.63 228.11 158.4 233.3 166.01 232.83C171.06 232.52 175.07 235 176.78 230.86C177.59 228.9 182.3 204.1 187.59 214.32L187.6 214.33Z" fill="#241F3F"/>
<path d="M155.79 229.44C155.12 233.58 155.67 239.07 157.97 242.57C160.27 246.07 165.09 248.12 168.85 246.27C173.69 243.9 174.15 237.26 173.56 231.91C173.19 228.53 172.6 225.01 170.56 222.3C163.73 213.24 156.89 222.6 155.79 229.44Z" fill="#4B4DF6"/>
<path d="M166.89 222.33C167.03 213.81 168.99 204.14 176.3 198.81C181.45 195.05 191.49 191.39 201 192.69C201 192.69 198.4 190.28 195.71 189.84C187.93 188.57 180.02 190.81 173.71 195.46C165.35 201.61 162.83 212.48 162.66 222.33C162.61 225.05 166.84 225.05 166.89 222.33Z" fill="#4B4DF6"/>
<path d="M164.63 239.04C166.31 249.58 175.26 258.88 186.04 259.86C187.32 259.98 187.31 257.98 186.04 257.86C176.1 256.95 168.09 248.1 166.56 238.51C166.36 237.24 164.43 237.78 164.63 239.04Z" fill="#4B4DF6"/>
<path d="M194.11 258.1C194.11 260.7 192.01 262.8 189.41 262.8C186.81 262.8 184.71 260.7 184.71 258.1C184.71 255.5 186.81 253.4 189.41 253.4C192.01 253.4 194.11 255.5 194.11 258.1Z" fill="#4B4DF6"/>
<path d="M203.93 242.64C204.17 244.57 205.1 246.42 206.54 247.85C206.97 248.28 207.49 248.76 207.43 249.34C207.33 250.34 205.81 250.52 204.73 250.34C202.53 249.97 200.4 249.27 198.45 248.29C198.28 248.2 198.1 248.11 197.97 247.98C197.75 247.76 197.65 247.46 197.6 247.16C197.31 245.43 198.21 243.74 198.78 242.07C199.41 240.18 199.22 230.85 202.44 231.54C206.06 232.32 203.67 240.49 203.94 242.63L203.93 242.64Z" fill="#E28E60"/>
<path d="M157.71 236.09C157.75 238.22 157.97 240.6 159.56 242.02C161.38 243.65 164.67 243.09 165.85 240.95C166.42 239.92 166.51 238.7 166.59 237.53C166.78 234.47 166.89 231.36 166.23 228.36C165.68 225.86 164.17 223.15 161.63 222.83C157.59 222.32 157.67 233.71 157.71 236.09Z" fill="#737AFF"/>
<path d="M195.28 233.9C195.28 235.57 194.45 236.93 193.43 236.93C192.41 236.93 191.58 235.57 191.58 233.9C191.58 232.23 192.41 230.87 193.43 230.87C194.45 230.87 195.28 232.23 195.28 233.9Z" fill="#241F3F"/>
<path d="M210.9 237.75C211.922 237.75 212.75 236.393 212.75 234.72C212.75 233.047 211.922 231.69 210.9 231.69C209.879 231.69 209.05 233.047 209.05 234.72C209.05 236.393 209.879 237.75 210.9 237.75Z" fill="#241F3F"/>
<path d="M188.51 227.79C190.04 226.23 192.18 225.78 194.23 226.51C195.44 226.95 195.97 225.01 194.76 224.58C192.07 223.61 189.09 224.34 187.1 226.37C186.2 227.29 187.61 228.71 188.51 227.78V227.79Z" fill="#241F3F"/>
<path d="M209.811 227.29C211.351 227.44 212.741 228.01 214.001 228.89C215.051 229.63 216.05 227.9 215.01 227.16C213.46 226.06 211.701 225.47 209.821 225.28C208.541 225.16 208.551 227.16 209.821 227.28L209.811 227.29Z" fill="#241F3F"/>
<path d="M454.7 426.03H57.0299C52.2416 426.03 48.3599 429.912 48.3599 434.7V435.68C48.3599 440.468 52.2416 444.35 57.0299 444.35H454.7C459.488 444.35 463.37 440.468 463.37 435.68V434.7C463.37 429.912 459.488 426.03 454.7 426.03Z" fill="#B7A5EF"/>
<path d="M69.1899 444.35H442.54V445.04C442.54 451.77 437.08 457.23 430.35 457.23H81.3799C74.6499 457.23 69.1899 451.77 69.1899 445.04V444.35Z" fill="#D2BFFF"/>
<path d="M383.88 387.98H243.79C238.34 387.98 234.09 383.25 234.67 377.83L243.28 297.18C243.78 292.52 247.71 288.98 252.4 288.98H392.49C397.94 288.98 402.19 293.71 401.61 299.13L393 379.78C392.5 384.44 388.57 387.98 383.88 387.98Z" fill="#4B4DF6"/>
<path d="M389.16 387.98H249.07C243.62 387.98 239.37 383.25 239.95 377.83L248.56 297.18C249.06 292.52 252.99 288.98 257.68 288.98H397.77C403.22 288.98 407.47 293.71 406.89 299.13L398.28 379.78C397.78 384.44 393.85 387.98 389.16 387.98Z" fill="#363C89"/>
<path d="M325.58 346.84H316.34C312.86 346.84 310.04 349.66 310.04 353.14V420.39H331.88V353.14C331.88 349.66 329.06 346.84 325.58 346.84Z" fill="#4B4DF6"/>
<path d="M355.13 420.39H284.67V426.03H355.13V420.39Z" fill="#363C89"/>
<path d="M293.84 420.39H210.9V426.03H293.84V420.39Z" fill="#4B4DF6"/>
<path d="M177.18 413.34H169.34C164.01 413.34 159.7 417.66 159.7 422.98C159.7 424.66 161.06 426.02 162.74 426.02H183.79C185.47 426.02 186.83 424.66 186.83 422.98C186.83 417.65 182.51 413.34 177.19 413.34H177.18Z" fill="#4B4DF6"/>
<path d="M310.99 111.82C310.16 106.31 306.73 101.51 305.45 96.08C302.93 85.42 309.04 74.38 307.71 63.5C305.88 48.53 288.75 38.25 274.05 41.64C267.94 43.05 264.12 44.36 258.27 43.09C241.07 39.38 228.43 47.52 224.99 56.85C216.72 79.32 229.26 82.9 232.49 101.72C233.85 109.66 221.49 122.67 237.18 141.19C242.47 147.44 250.67 151.09 258.83 152.53C257.08 156.47 254.62 160.99 251.81 163.22C251.81 163.22 263 160.11 269.84 153.48C289.45 153.77 316.27 147.04 310.98 111.81L310.99 111.82Z" fill="#D2BFFF"/>
<path d="M283.33 116.19L278.05 109.63C276.55 107.77 273.83 107.47 271.96 108.97L270.37 110.25C269.44 111 268.07 110.85 267.32 109.92L260.77 101.78L259.99 100.81L253.44 92.67C252.69 91.74 252.84 90.37 253.77 89.62L255.36 88.34C257.22 86.84 257.52 84.12 256.02 82.25L250.74 75.69C249.24 73.83 246.52 73.53 244.65 75.03L242.91 76.43C238.38 80.07 237.67 86.7 241.31 91.23L245.42 96.34L253.33 106.17L254.11 107.14L262.02 116.97L266.13 122.08C269.77 126.61 276.4 127.32 280.93 123.68L282.67 122.28C284.53 120.78 284.83 118.06 283.33 116.19Z" fill="#4B4DF6"/>
<path d="M277.19 101.23C277.13 101.23 277.07 101.23 277.01 101.21C276.47 101.11 276.1 100.59 276.2 100.05C276.94 95.91 276.31 92.58 274.34 90.14C270.98 85.99 264.73 85.72 264.67 85.72C264.12 85.7 263.69 85.24 263.7 84.69C263.72 84.14 264.23 83.7 264.73 83.72C265.02 83.72 271.93 84.01 275.88 88.87C278.24 91.78 279 95.65 278.16 100.4C278.07 100.88 277.65 101.23 277.18 101.23H277.19Z" fill="white"/>
<path d="M283.48 100.9C283.48 100.9 283.42 100.9 283.39 100.9C282.84 100.85 282.44 100.36 282.49 99.81C284.17 81.95 267 79.74 266.27 79.65C265.72 79.59 265.33 79.09 265.39 78.54C265.45 77.99 265.96 77.6 266.5 77.66C266.7 77.68 286.35 80.16 284.48 99.99C284.43 100.51 284 100.9 283.49 100.9H283.48Z" fill="white"/>
<path d="M289.71 99.83C289.16 99.83 288.71 99.39 288.71 98.84C288.58 78.42 269.36 73.96 268.55 73.78C268.01 73.66 267.67 73.13 267.79 72.59C267.91 72.05 268.45 71.71 268.98 71.83C269.2 71.88 290.57 76.79 290.72 98.83C290.72 99.38 290.28 99.83 289.73 99.84L289.71 99.83Z" fill="white"/>
<path d="M466.26 115.06C460.61 109.05 451.94 107.28 444.5 103.72C433.63 98.51 425.24 89.33 417.52 80.07C409.12 69.98 398.53 57.16 384.27 56.96C369.38 56.75 354.33 65.94 344.92 76.88C334.28 89.25 328.58 105.28 326.39 121.45C324.77 133.4 325.05 146.05 330.33 156.89C331.67 159.65 333.4 162.25 335.42 164.6C333.09 168.77 329.61 173.82 325.52 176.1C325.52 176.1 336.46 175.79 343.46 171.5C348.09 174.36 353.37 175.99 358.83 175.73C367.88 175.3 376.87 169.98 385.54 172.6C389.87 173.91 393.37 177.03 397.01 179.71C410.8 189.86 429.79 194.27 445.42 187.29C463.75 179.1 472.91 157.56 473.05 137.49C473.11 129.48 471.75 120.9 466.27 115.06H466.26Z" fill="#FFC278"/>
<path d="M432.57 106.26H357.18V161.04H432.57V106.26Z" fill="white"/>
<path d="M363.459 112.05C362.629 112.05 361.959 111.38 361.959 110.55V103.27C361.959 102.44 362.629 101.77 363.459 101.77C364.289 101.77 364.959 102.44 364.959 103.27V110.55C364.959 111.38 364.289 112.05 363.459 112.05Z" fill="#4B4DF6"/>
<path d="M372.439 112.05C371.609 112.05 370.939 111.38 370.939 110.55V103.27C370.939 102.44 371.609 101.77 372.439 101.77C373.269 101.77 373.939 102.44 373.939 103.27V110.55C373.939 111.38 373.269 112.05 372.439 112.05Z" fill="#4B4DF6"/>
<path d="M381.41 112.05C380.58 112.05 379.91 111.38 379.91 110.55V103.27C379.91 102.44 380.58 101.77 381.41 101.77C382.24 101.77 382.91 102.44 382.91 103.27V110.55C382.91 111.38 382.24 112.05 381.41 112.05Z" fill="#4B4DF6"/>
<path d="M390.39 112.05C389.56 112.05 388.89 111.38 388.89 110.55V103.27C388.89 102.44 389.56 101.77 390.39 101.77C391.22 101.77 391.89 102.44 391.89 103.27V110.55C391.89 111.38 391.22 112.05 390.39 112.05Z" fill="#4B4DF6"/>
<path d="M399.359 112.05C398.529 112.05 397.859 111.38 397.859 110.55V103.27C397.859 102.44 398.529 101.77 399.359 101.77C400.189 101.77 400.859 102.44 400.859 103.27V110.55C400.859 111.38 400.189 112.05 399.359 112.05Z" fill="#4B4DF6"/>
<path d="M408.339 112.05C407.509 112.05 406.839 111.38 406.839 110.55V103.27C406.839 102.44 407.509 101.77 408.339 101.77C409.169 101.77 409.839 102.44 409.839 103.27V110.55C409.839 111.38 409.169 112.05 408.339 112.05Z" fill="#4B4DF6"/>
<path d="M417.31 112.05C416.48 112.05 415.81 111.38 415.81 110.55V103.27C415.81 102.44 416.48 101.77 417.31 101.77C418.14 101.77 418.81 102.44 418.81 103.27V110.55C418.81 111.38 418.14 112.05 417.31 112.05Z" fill="#4B4DF6"/>
<path d="M426.29 112.05C425.46 112.05 424.79 111.38 424.79 110.55V103.27C424.79 102.44 425.46 101.77 426.29 101.77C427.12 101.77 427.79 102.44 427.79 103.27V110.55C427.79 111.38 427.12 112.05 426.29 112.05Z" fill="#4B4DF6"/>
<path d="M386.32 118.78H378.66V126.44H386.32V118.78Z" fill="#D2BFFF"/>
<path d="M398.32 118.78H390.66V126.44H398.32V118.78Z" fill="#D2BFFF"/>
<path d="M410.33 118.78H402.67V126.44H410.33V118.78Z" fill="#D2BFFF"/>
<path d="M422.34 118.78H414.68V126.44H422.34V118.78Z" fill="#FFC278"/>
<path d="M374.31 129.83H366.65V137.49H374.31V129.83Z" fill="#FFC278"/>
<path d="M386.32 129.83H378.66V137.49H386.32V129.83Z" fill="#D2BFFF"/>
<path d="M398.32 129.83H390.66V137.49H398.32V129.83Z" fill="#D2BFFF"/>
<path d="M410.33 129.83H402.67V137.49H410.33V129.83Z" fill="#D2BFFF"/>
<path d="M422.34 129.83H414.68V137.49H422.34V129.83Z" fill="#FFC278"/>
<path d="M374.31 140.87H366.65V148.53H374.31V140.87Z" fill="#FFC278"/>
<path d="M386.32 140.87H378.66V148.53H386.32V140.87Z" fill="#D2BFFF"/>
<path d="M398.32 140.87H390.66V148.53H398.32V140.87Z" fill="#D2BFFF"/>
<path d="M410.33 140.87H402.67V148.53H410.33V140.87Z" fill="#D2BFFF"/>
<path d="M84.5401 101.44C64.4601 116.06 39.8701 101.34 26.6601 129.69C21.2101 141.39 23.3701 152.77 28.8501 165.28C35.2201 179.81 44.2601 185.53 57.3401 186.19C64.8901 186.57 71.2401 183.29 78.5801 178.79C83.9201 182.05 91.1301 185.5 97.8101 185.54C97.8101 185.54 91.9701 181.31 90.1101 171.72C92.8901 170.11 95.8701 168.49 99.1301 166.94C119.54 157.25 126.82 165.99 139.14 151.08C159.28 126.7 126.39 70.98 84.5401 101.45V101.44Z" fill="#FFB583"/>
<path d="M106.42 115.12L114.25 142.96C114.59 144.17 114.33 145.4 113.66 146.36C113.15 147.08 112.39 147.65 111.48 147.9L61.1302 162.07C60.2202 162.33 59.2802 162.25 58.4602 161.89C57.3902 161.43 56.5202 160.51 56.1802 159.29L48.3502 131.45C48.0102 130.24 48.2602 129 48.9402 128.05C49.4502 127.33 50.2102 126.78 51.1302 126.52L101.48 112.35C102.39 112.09 103.33 112.18 104.15 112.52C105.23 112.99 106.09 113.9 106.43 115.12H106.42Z" fill="white"/>
<path d="M89.7904 134.82L113.67 146.36C113.16 147.08 112.4 147.65 111.49 147.9L108.97 148.61L87.5704 138.27L84.4004 143.2C84.1104 143.63 83.7004 143.93 83.2304 144.06C82.7704 144.19 82.2604 144.15 81.8004 143.93L76.5104 141.38L63.6604 161.36L58.4704 161.89L72.8204 139.59L48.9404 128.05C49.4504 127.33 50.2104 126.78 51.1304 126.52L53.6504 125.81L81.9404 139.49L98.9604 113.06L101.48 112.35C102.39 112.09 103.33 112.18 104.15 112.52L89.8004 134.82H89.7904Z" fill="#A4ADFF"/>
<path d="M208.48 95.97C206.37 92.46 202.85 89.56 202.32 85.51C202.06 83.55 202.07 81.44 202.85 79.62C207.71 68.3 204.24 55.51 194.12 47.93C186.07 41.91 175.24 40.49 166.35 44.57C152.9 50.75 145.19 62.66 151.86 81.76C153.73 87.1 156.22 92.43 156.24 98.09C156.25 102.46 153.15 113.18 162.4 122.98C167.98 128.88 175.01 131.33 182.33 130.9C183.23 133.6 184.12 138.29 183.12 145.18C183.12 145.18 192.04 137.71 192.74 128.5C214.5 121 211.72 101.37 208.48 95.97Z" fill="#A4ADFF"/>
<path d="M176.33 103.23C174.36 103.23 172.76 104.83 172.76 106.8C172.76 108.77 174.36 110.37 176.33 110.37C178.3 110.37 179.9 108.77 179.9 106.8C179.9 104.83 178.3 103.23 176.33 103.23Z" fill="white"/>
<path d="M185.95 70.82C183.53 68.39 180.27 67.18 176.17 67.18C172.07 67.18 169.13 68.38 166.73 70.78C165.59 71.92 164.7 73.18 164.06 74.55C162.97 76.88 164.36 79.73 166.67 80.06C168.12 80.26 169.53 79.38 170.14 77.87C170.6 76.72 171.19 75.8 171.93 75.09C173.15 73.92 174.67 73.34 176.48 73.34C178.29 73.34 179.86 73.9 180.97 75.02C182.08 76.14 182.63 77.49 182.63 79.06C182.63 80.19 182.32 81.23 181.69 82.17C181.28 82.76 180.04 84.02 177.95 85.94C175.87 87.86 174.48 89.58 173.78 91.12C173.48 91.79 173.25 93.36 173.08 94.91C172.85 97.04 174.34 98.91 176.23 98.91C177.79 98.91 179.14 97.61 179.36 95.86C179.44 95.19 179.57 94.67 179.73 94.28C180.09 93.42 181.03 92.28 182.54 90.86C185.45 88.12 187.36 85.95 188.25 84.36C189.14 82.77 189.58 81.08 189.58 79.3C189.58 76.08 188.37 73.26 185.95 70.83V70.82Z" fill="white"/>
</svg>
