<svg width="524" height="465" viewBox="0 0 524 465" fill="none" xmlns="http://www.w3.org/2000/svg">
<path d="M165.735 0L165.735 465M396.506 0L396.506 465M204.902 0L204.902 465M434.616 0L434.615 465M19.05 0L19.05 465M243.011 0L243.011 465M472.725 0L472.725 465M51.4074 0L51.4074 465M281.121 0L281.121 465M505.42 1.6276e-09L505.42 465M89.5165 0L89.5165 465M319.23 0L319.23 465M127.626 0L127.626 465M358.397 0L358.397 465M524 152.536L3.07101e-09 152.536M524 357.03L3.07101e-09 357.03M524 186.322L3.07101e-09 186.322M524 391.705L2.79163e-09 391.705M524 16.5038L2.3953e-09 16.5038M524 220.997L3.07101e-09 220.997M524 424.601L2.79163e-09 424.601M524 51.1788L3.07101e-09 51.1787M524 254.783L3.07101e-09 254.783M524 459.276L0 459.276M524 84.9646L3.07101e-09 84.9646M524 288.569L3.07101e-09 288.569M524 117.861L3.07101e-09 117.861M524 323.244L2.88476e-09 323.244" stroke="#E9C6FF" stroke-opacity="0.25"/>
<path d="M179.053 81.5C210.719 84.1949 334.455 113.209 333.053 143C329.053 228 199.053 161.5 179.053 219.5C148.208 308.949 342.707 229.6 333.053 320C327.553 371.5 157.053 314.5 179.053 384.5C188.024 413.044 272.553 427 272.553 427" stroke="#E9C6FF" stroke-width="10"/>
<path d="M243.153 319.4V314.3H257.853V319.4H243.153ZM265.253 319.4V314.3H279.953V319.4H265.253ZM243.153 329.6V324.5H279.953V329.6H243.153ZM243.153 339.8V334.7H257.853V339.8H243.153ZM265.253 339.8V334.7H279.953V339.8H265.253ZM243.153 350V344.9H279.953V350H243.153Z" fill="#F7D43A"/>
<path d="M286.343 96.0102C286.629 94.9432 287.725 94.3101 288.792 94.5959L310.043 100.29C311.11 100.576 311.743 101.673 311.457 102.739L305.763 123.99C305.477 125.057 304.38 125.69 303.313 125.404L282.063 119.71C280.996 119.424 280.363 118.327 280.649 117.261L286.343 96.0102Z" fill="#CA73FF"/>
<path d="M311.264 119.932C311.55 118.865 312.647 118.232 313.714 118.518L334.964 124.212C336.031 124.498 336.664 125.594 336.378 126.661L330.684 147.912C330.399 148.978 329.302 149.612 328.235 149.326L306.985 143.632C305.918 143.346 305.284 142.249 305.57 141.182L311.264 119.932Z" fill="#73CDFF"/>
<path d="M254.264 83.9319C254.55 82.8649 255.647 82.2318 256.714 82.5176L277.964 88.2117C279.031 88.4975 279.664 89.5942 279.378 90.6611L273.684 111.912C273.399 112.978 272.302 113.612 271.235 113.326L249.985 107.632C248.918 107.346 248.284 106.249 248.57 105.182L254.264 83.9319Z" fill="#FFBD13"/>
<path d="M172.935 204.174C172.448 203.183 172.856 201.984 173.848 201.497L187.31 194.882C188.302 194.395 189.5 194.804 189.987 195.795L200.571 217.335C201.058 218.327 200.65 219.525 199.658 220.012L186.196 226.627C185.204 227.114 184.006 226.705 183.519 225.714L172.935 204.174Z" fill="#CA73FF"/>
<path d="M174.273 204.63C173.786 203.639 174.195 202.44 175.186 201.953L186.854 196.22C187.845 195.733 189.044 196.142 189.531 197.134L199.233 216.879C199.72 217.87 199.311 219.069 198.32 219.556L186.652 225.289C185.661 225.776 184.462 225.367 183.975 224.376L174.273 204.63Z" fill="#FFBD13"/>
<rect x="176.562" y="202.485" width="10" height="2.16667" rx="1" transform="rotate(-26.1672 176.562 202.485)" fill="white"/>
<path d="M184.401 238.894C184.756 237.848 185.891 237.288 186.937 237.642L201.143 242.458C202.189 242.813 202.75 243.949 202.395 244.995L194.689 267.724C194.334 268.77 193.199 269.331 192.153 268.976L177.947 264.16C176.901 263.805 176.34 262.669 176.695 261.623L184.401 238.894Z" fill="#3DA2FF"/>
<path d="M185.027 240.162C185.382 239.116 186.517 238.556 187.563 238.91L199.875 243.084C200.921 243.439 201.482 244.575 201.127 245.621L194.063 266.456C193.708 267.502 192.573 268.062 191.527 267.708L179.215 263.534C178.169 263.179 177.609 262.043 177.963 260.997L185.027 240.162Z" fill="#73CDFF"/>
<rect x="188.163" y="240.257" width="10" height="2.16667" rx="1" transform="rotate(18.7285 188.163 240.257)" fill="white"/>
<path d="M220.566 250.793C221.056 249.803 222.255 249.397 223.245 249.886L236.694 256.528C237.685 257.017 238.091 258.217 237.602 259.207L226.974 280.726C226.485 281.716 225.286 282.122 224.295 281.633L210.846 274.991C209.856 274.501 209.449 273.302 209.939 272.312L220.566 250.793Z" fill="#FFBD13"/>
<path d="M221.02 252.133C221.509 251.142 222.709 250.736 223.699 251.225L235.355 256.982C236.345 257.471 236.752 258.67 236.263 259.661L226.52 279.386C226.031 280.376 224.832 280.783 223.841 280.294L212.186 274.537C211.195 274.048 210.789 272.848 211.278 271.858L221.02 252.133Z" fill="#CA73FF"/>
<rect x="224.116" y="252.639" width="10" height="2.16667" rx="1" transform="rotate(26.2847 224.116 252.639)" fill="white"/>
<g clip-path="url(#clip0_162_669)">
<path fill-rule="evenodd" clip-rule="evenodd" d="M207.426 87.7679L207.511 88.3783C207.713 89.9964 207.977 92.1374 207.12 93.6215C206.419 94.8355 204.962 95.62 203.633 96.2122L202.775 96.5812C200.746 97.437 198.006 98.2529 194.808 98.5771C188.496 99.2166 180.415 97.9304 172.66 91.3403C172.213 91.4142 171.773 91.5284 171.336 91.6561L170.682 91.8544C169.681 92.1635 168.682 92.472 167.623 92.4524C165.976 92.4218 164.55 91.126 163.435 89.8551L162.904 89.2277L162.247 88.4113C161.048 86.8761 159.667 84.7399 160.74 82.881C161.383 81.7677 162.573 81.0598 163.775 80.4223L164.225 80.1859C164.816 79.8776 165.393 79.576 165.893 79.2414C166.2 79.0359 166.51 78.8197 166.822 78.592C166.603 78.4935 166.387 78.383 166.175 78.2605C165.162 77.6757 164.285 76.6334 163.632 75.756C162.919 74.7981 162.224 73.6853 161.618 72.6443L161.311 72.1095L160.741 71.0788L160.242 70.1404L159.667 69.0119L159.319 68.303C159.016 67.6688 158.962 66.8189 159.406 66.0501C159.85 65.2812 160.613 64.903 161.314 64.8485L162.365 64.7792L164.076 64.7023L165.331 64.6733L166.223 64.6687C167.427 64.6724 168.739 64.7185 169.925 64.8569C171.011 64.9837 172.352 65.2222 173.365 65.8071L173.595 65.9451L173.613 65.78C173.659 65.3659 173.685 64.9246 173.703 64.4685L173.728 63.7746C173.785 62.038 173.846 60.1804 174.629 58.8252C175.576 57.1851 177.665 57.0918 179.469 57.2785L180.172 57.3651L181.207 57.5257L182.016 57.6721C183.674 58.0024 185.509 58.5892 186.359 60C186.81 60.7479 187.049 61.5874 187.252 62.4406L187.371 62.9535C187.525 63.622 187.678 64.2893 187.915 64.9184C197.5 68.3397 202.654 74.6943 205.256 80.4807C206.454 83.1456 207.112 85.6864 207.426 87.7679ZM172 72.9146C172.355 72.0179 172.132 70.9983 171.458 70.3309L171.216 70.1221L170.969 69.9582L170.524 69.7672C169.493 69.3975 168.197 69.3778 167 69.4121L165.85 69.4535C165.668 69.4597 165.493 69.4647 165.325 69.4671L165.55 69.881L166.031 70.7885C166.702 72.0445 167.506 73.4175 168.573 74.1098C169.625 74.7173 170.946 74.4358 171.668 73.4987L171.835 73.2509L171.874 73.1821L172 72.9146ZM192.601 85.2157C193.925 82.923 193.14 79.9915 190.847 78.6677C188.554 77.3442 185.623 78.1297 184.299 80.4222C182.975 82.7149 183.761 85.6464 186.054 86.9702C188.346 88.2937 191.278 87.5082 192.601 85.2157Z" fill="#CA73FF"/>
</g>
<path d="M274.75 421.25L269.958 426.042M274.75 421.25V415.5L280.5 409.75V415.5H286.25L280.5 421.25H274.75Z" stroke="#FF0000" stroke-width="3" stroke-linecap="round" stroke-linejoin="round"/>
<path d="M269.633 409.75H269C265.588 409.75 262.253 410.762 259.416 412.657C256.58 414.553 254.369 417.247 253.063 420.399C251.757 423.551 251.416 427.019 252.081 430.365C252.747 433.711 254.39 436.785 256.802 439.198C259.215 441.61 262.289 443.253 265.635 443.919C268.981 444.584 272.449 444.243 275.601 442.937C278.753 441.631 281.447 439.42 283.343 436.584C285.238 433.747 286.25 430.412 286.25 427C286.25 426.789 286.25 426.578 286.25 426.368" stroke="#FF0000" stroke-width="3" stroke-linecap="round" stroke-linejoin="round"/>
<path d="M278.392 428.917C278.045 430.613 277.245 432.183 276.078 433.461C274.91 434.739 273.418 435.677 271.76 436.176C270.102 436.674 268.34 436.713 266.662 436.291C264.983 435.868 263.45 434.998 262.226 433.774C261.002 432.55 260.132 431.017 259.709 429.338C259.287 427.66 259.326 425.898 259.825 424.24C260.323 422.582 261.261 421.09 262.539 419.922C263.817 418.755 265.387 417.955 267.083 417.608" stroke="#FF0000" stroke-width="3" stroke-linecap="round" stroke-linejoin="round"/>
<defs>
<clipPath id="clip0_162_669">
<rect width="64" height="64" fill="white" transform="translate(198.819 32) rotate(75)"/>
</clipPath>
</defs>
</svg>
