<?xml version="1.0" encoding="UTF-8"?>
<svg id="Layer_2" data-name="Layer 2" xmlns="http://www.w3.org/2000/svg" viewBox="0 0 809.84 678.45">
  <defs>
    <style>
      .cls-1 {
        fill: #73cdff;
      }

      .cls-1, .cls-2, .cls-3, .cls-4 {
        stroke-width: 0px;
      }

      .cls-2 {
        fill: #3e0065;
      }

      .cls-3 {
        fill: #ca73ff;
      }

      .cls-4 {
        fill: #ffbc11;
      }
    </style>
  </defs>
  <g id="Fourth">
    <path class="cls-1" d="M80.96,608.22c19.3,0,34.35,15.7,34.35,35s-15.05,35-34.35,35-34.35-15.7-34.35-35,15.05-35,34.35-35Z"/>
    <path class="cls-3" d="M314.3,496.47l-68.02-1.9-5.2,182.15-60.49-1.94,5.2-182.15-67.37-1.87,1.31-52.33,195.88,5.71-1.31,52.33Z"/>
    <path class="cls-2" d="M454.06,436.7c74.59,0,123.33,54.3,123.33,120.39s-48.42,121.37-121.37,121.37-123.66-53.98-123.66-120.38,49.07-121.37,121.69-121.37ZM511.63,555.45c0-37.95-20.94-68.04-56.27-68.04s-57.25,32.71-57.25,72.62,22.25,67.72,56.27,67.72c36.97,0,57.25-33.69,57.25-72.3Z"/>
    <path class="cls-3" d="M195.95,145l-67.72-.98-3.6,181.89-60.52-.98,3.92-182.21-68.04-1.31.98-52.34,195.95,3.92-.98,52.01Z"/>
    <path class="cls-1" d="M312.41,244.44l-20.94.65,2.94,79.49-60.85,1.96c-2.62-77.86-5.23-156.04-8.18-234.23l80.8-2.94c14.07-.33,19.63-.65,25.52-.65,54.96,0,84.73,35.98,84.73,73.93,0,30.75-19.96,57.58-45.14,69.03l68.04,87.67-70.33,2.62-56.59-77.53ZM321.9,197.99c22.57-.65,31.08-16.68,31.08-32.06s-9.16-30.75-29.77-30.75c-10.8,0-25.19.65-35.33.98.65,20.94,1.31,41.87,2.29,62.81l31.73-.98Z"/>
    <g>
      <path class="cls-4" d="M468.74,234.55L473.97,0l60.52,1.31-5.23,234.55-60.52-1.31Z"/>
      <path class="cls-4" d="M468.74,319.08l5.23-65.23,60.52.36-5.23,65.23-60.52-.36Z"/>
    </g>
    <path class="cls-2" d="M686.51,328.35c-73.28,0-121.69-54.63-121.69-121.04s48.74-120.38,123.33-120.38,121.69,53.65,121.69,121.37-49.72,120.06-123.33,120.06ZM744.08,210.26c0-39.91-21.59-72.62-57.25-72.62s-56.27,30.1-56.27,68.04,20.28,72.3,57.58,72.3c33.69,0,55.94-27.81,55.94-67.72Z"/>
  </g>
</svg>