<?xml version="1.0" encoding="UTF-8"?>
<svg id="Layer_2" data-name="Layer 2" xmlns="http://www.w3.org/2000/svg" viewBox="0 0 928.73 243.74">
  <defs>
    <style>
      .cls-1 {
        fill: #fff;
      }

      .cls-1, .cls-2 {
        stroke-width: 0px;
      }

      .cls-2 {
        fill: #ffbc11;
      }
    </style>
  </defs>
  <g id="five">
    <g>
      <path class="cls-1" d="M133.86,105.14l-46.26-.67-2.46,124.25-41.34-.67,2.68-124.47-46.48-.89.67-35.75,133.86,2.68-.67,35.53Z"/>
      <path class="cls-1" d="M213.41,173.07l-14.3.45,2.01,54.3-41.56,1.34c-1.79-53.18-3.58-106.59-5.59-160l55.2-2.01c9.61-.22,13.41-.45,17.43-.45,37.54,0,57.88,24.58,57.88,50.5,0,21-13.63,39.33-30.84,47.15l46.48,59.89-48.04,1.79-38.66-52.96ZM219.89,141.34c15.42-.45,21.23-11.4,21.23-21.9s-6.26-21.01-20.34-21.01c-7.37,0-17.21.45-24.13.67.45,14.3.89,28.6,1.56,42.91l21.68-.67Z"/>
      <g>
        <path class="cls-2" d="M320.42,160.22L324,0l41.34.89-3.58,160.22-41.34-.89Z"/>
        <path class="cls-2" d="M320.42,228.84l3.58-48.79,41.34.27-3.58,48.79-41.34-.27Z"/>
      </g>
      <path class="cls-1" d="M468.78,236.31c-50.06,0-83.13-37.32-83.13-82.68s33.3-82.24,84.25-82.24,83.13,36.65,83.13,82.91-33.97,82.01-84.25,82.01ZM508.11,155.64c0-27.26-14.75-49.61-39.11-49.61s-38.44,20.56-38.44,46.48,13.85,49.39,39.33,49.39c23.02,0,38.21-18.99,38.21-46.26Z"/>
      <path class="cls-2" d="M603.14,186.7c13.18,0,23.46,10.73,23.46,23.91s-10.28,23.91-23.46,23.91-23.46-10.73-23.46-23.91,10.28-23.91,23.46-23.91Z"/>
      <path class="cls-1" d="M751.52,107.82l-46.48.45,1.12,124.47-41.34.22-1.12-124.47-46.03.45-.45-35.75,133.86-1.12.45,35.75Z"/>
      <path class="cls-1" d="M844.49,78.6c50.95,0,84.25,37.1,84.25,82.24s-33.07,82.91-82.91,82.91-84.47-36.87-84.47-82.23,33.52-82.91,83.13-82.91ZM883.82,159.72c0-25.92-14.3-46.48-38.44-46.48s-39.11,22.35-39.11,49.61,15.2,46.26,38.44,46.26c25.25,0,39.11-23.02,39.11-49.39Z"/>
    </g>
  </g>
</svg>