<svg width="93" height="20" viewBox="0 0 93 20" fill="none" xmlns="http://www.w3.org/2000/svg">
<path d="M1.666 19.208C1.12867 19.208 0.712667 19.0607 0.418 18.766C0.140667 18.454 0.00200018 18.0293 0.00200018 17.492V2.178C0.00200018 1.62333 0.140667 1.19867 0.418 0.903999C0.712667 0.609332 1.12867 0.461998 1.666 0.461998C2.20333 0.461998 2.61067 0.609332 2.888 0.903999C3.18267 1.19867 3.33 1.62333 3.33 2.178V8.314H12.768V2.178C12.768 1.62333 12.9067 1.19867 13.184 0.903999C13.4787 0.609332 13.8947 0.461998 14.432 0.461998C14.9693 0.461998 15.3767 0.609332 15.654 0.903999C15.9487 1.19867 16.096 1.62333 16.096 2.178V17.492C16.096 18.0293 15.9487 18.454 15.654 18.766C15.3767 19.0607 14.9693 19.208 14.432 19.208C13.8947 19.208 13.4787 19.0607 13.184 18.766C12.9067 18.454 12.768 18.0293 12.768 17.492V11.096H3.33V17.492C3.33 18.0293 3.19133 18.454 2.914 18.766C2.63667 19.0607 2.22067 19.208 1.666 19.208ZM23.9854 19.26C23.0667 19.26 22.2434 19.0867 21.5154 18.74C20.8047 18.376 20.2414 17.8907 19.8254 17.284C19.4267 16.6773 19.2274 15.9927 19.2274 15.23C19.2274 14.294 19.47 13.5573 19.9554 13.02C20.4407 12.4653 21.2294 12.0667 22.3214 11.824C23.4134 11.5813 24.878 11.46 26.7154 11.46H28.0154V13.332H26.7414C25.6667 13.332 24.8087 13.384 24.1674 13.488C23.526 13.592 23.0667 13.774 22.7894 14.034C22.5294 14.2767 22.3994 14.6233 22.3994 15.074C22.3994 15.646 22.5987 16.114 22.9974 16.478C23.396 16.842 23.9507 17.024 24.6614 17.024C25.2334 17.024 25.736 16.894 26.1694 16.634C26.62 16.3567 26.9754 15.984 27.2354 15.516C27.4954 15.048 27.6254 14.5107 27.6254 13.904V10.914C27.6254 10.0473 27.4347 9.42333 27.0534 9.042C26.672 8.66067 26.0307 8.47 25.1294 8.47C24.6267 8.47 24.0807 8.53067 23.4914 8.652C22.9194 8.77333 22.3127 8.98133 21.6714 9.276C21.342 9.432 21.0474 9.47533 20.7874 9.406C20.5447 9.33667 20.354 9.198 20.2154 8.99C20.0767 8.76467 20.0074 8.522 20.0074 8.262C20.0074 8.002 20.0767 7.75067 20.2154 7.508C20.354 7.248 20.588 7.05733 20.9174 6.936C21.7147 6.60667 22.4774 6.37267 23.2054 6.234C23.9507 6.09533 24.6267 6.026 25.2334 6.026C26.4814 6.026 27.504 6.21667 28.3014 6.598C29.116 6.97933 29.7227 7.56 30.1214 8.34C30.52 9.10267 30.7194 10.0907 30.7194 11.304V17.544C30.7194 18.0813 30.5894 18.4973 30.3294 18.792C30.0694 19.0693 29.6967 19.208 29.2114 19.208C28.726 19.208 28.3447 19.0693 28.0674 18.792C27.8074 18.4973 27.6774 18.0813 27.6774 17.544V16.296H27.8854C27.764 16.9027 27.5214 17.4313 27.1574 17.882C26.8107 18.3153 26.3687 18.6533 25.8314 18.896C25.294 19.1387 24.6787 19.26 23.9854 19.26ZM39.8941 19.26C38.5595 19.26 37.3981 18.9913 36.4101 18.454C35.4221 17.8993 34.6595 17.1193 34.1221 16.114C33.5848 15.1087 33.3161 13.93 33.3161 12.578C33.3161 11.5553 33.4635 10.6453 33.7581 9.848C34.0701 9.03333 34.5121 8.34867 35.0841 7.794C35.6561 7.222 36.3495 6.78867 37.1641 6.494C37.9788 6.182 38.8888 6.026 39.8941 6.026C40.4661 6.026 41.0815 6.104 41.7401 6.26C42.4161 6.416 43.0488 6.676 43.6381 7.04C43.9155 7.21333 44.0975 7.42133 44.1841 7.664C44.2708 7.90667 44.2881 8.158 44.2361 8.418C44.1841 8.66067 44.0715 8.87733 43.8981 9.068C43.7421 9.24133 43.5428 9.354 43.3001 9.406C43.0575 9.44067 42.7888 9.38 42.4941 9.224C42.1128 8.99867 41.7228 8.834 41.3241 8.73C40.9255 8.60867 40.5441 8.548 40.1801 8.548C39.6081 8.548 39.1055 8.64333 38.6721 8.834C38.2388 9.00733 37.8661 9.26733 37.5541 9.614C37.2595 9.94333 37.0341 10.3593 36.8781 10.862C36.7221 11.3647 36.6441 11.9453 36.6441 12.604C36.6441 13.8867 36.9475 14.9007 37.5541 15.646C38.1781 16.374 39.0535 16.738 40.1801 16.738C40.5441 16.738 40.9168 16.686 41.2981 16.582C41.6968 16.478 42.0955 16.3133 42.4941 16.088C42.7888 15.932 43.0488 15.88 43.2741 15.932C43.5168 15.984 43.7161 16.1053 43.8721 16.296C44.0281 16.4693 44.1235 16.686 44.1581 16.946C44.1928 17.1887 44.1581 17.4313 44.0541 17.674C43.9675 17.9167 43.7941 18.116 43.5341 18.272C42.9621 18.6187 42.3555 18.87 41.7141 19.026C41.0728 19.182 40.4661 19.26 39.8941 19.26ZM47.8938 19.208C47.3738 19.208 46.9751 19.0693 46.6978 18.792C46.4205 18.4973 46.2818 18.0813 46.2818 17.544V2.1C46.2818 1.56267 46.4205 1.15533 46.6978 0.877999C46.9751 0.600665 47.3738 0.461998 47.8938 0.461998C48.4138 0.461998 48.8125 0.600665 49.0898 0.877999C49.3845 1.15533 49.5318 1.56267 49.5318 2.1V11.694H49.5838L53.8738 7.17C54.2205 6.82333 54.5238 6.55467 54.7838 6.364C55.0438 6.17333 55.3991 6.078 55.8498 6.078C56.3005 6.078 56.6385 6.19933 56.8638 6.442C57.1065 6.66733 57.2278 6.94467 57.2278 7.274C57.2278 7.60333 57.0718 7.93267 56.7598 8.262L52.2358 13.046V11.694L57.2018 17.05C57.5138 17.3793 57.6525 17.7173 57.6178 18.064C57.6005 18.3933 57.4618 18.6707 57.2018 18.896C56.9418 19.104 56.6125 19.208 56.2138 19.208C55.7285 19.208 55.3385 19.1127 55.0438 18.922C54.7665 18.7313 54.4545 18.4453 54.1078 18.064L49.5838 13.332H49.5318V17.544C49.5318 18.6533 48.9858 19.208 47.8938 19.208ZM66.6173 19.208C66.0799 19.208 65.6639 19.0607 65.3693 18.766C65.0919 18.454 64.9533 18.0293 64.9533 17.492V3.452H59.8833C59.4326 3.452 59.0773 3.33067 58.8173 3.088C58.5746 2.828 58.4532 2.48133 58.4532 2.048C58.4532 1.59733 58.5746 1.25933 58.8173 1.034C59.0773 0.791332 59.4326 0.669999 59.8833 0.669999H73.3513C73.8019 0.669999 74.1486 0.791332 74.3913 1.034C74.6513 1.25933 74.7812 1.59733 74.7812 2.048C74.7812 2.48133 74.6513 2.828 74.3913 3.088C74.1486 3.33067 73.8019 3.452 73.3513 3.452H68.2813V17.492C68.2813 18.0293 68.1426 18.454 67.8653 18.766C67.5879 19.0607 67.1719 19.208 66.6173 19.208ZM83.7805 19.26C82.0125 19.26 80.4612 18.87 79.1265 18.09C77.8092 17.31 76.7865 16.218 76.0585 14.814C75.3305 13.3927 74.9665 11.7287 74.9665 9.822C74.9665 8.38333 75.1745 7.092 75.5905 5.948C76.0065 4.78667 76.5958 3.79867 77.3585 2.984C78.1385 2.152 79.0658 1.51933 80.1405 1.086C81.2325 0.635333 82.4458 0.409999 83.7805 0.409999C85.5658 0.409999 87.1172 0.799999 88.4345 1.58C89.7518 2.34267 90.7745 3.426 91.5025 4.83C92.2305 6.234 92.5945 7.88933 92.5945 9.796C92.5945 11.2347 92.3865 12.5347 91.9705 13.696C91.5545 14.8573 90.9565 15.854 90.1765 16.686C89.4138 17.518 88.4865 18.1593 87.3945 18.61C86.3198 19.0433 85.1152 19.26 83.7805 19.26ZM83.7805 16.4C84.9072 16.4 85.8605 16.14 86.6405 15.62C87.4378 15.1 88.0445 14.346 88.4605 13.358C88.8938 12.37 89.1105 11.1913 89.1105 9.822C89.1105 7.742 88.6425 6.13 87.7065 4.986C86.7878 3.842 85.4792 3.27 83.7805 3.27C82.6712 3.27 81.7178 3.53 80.9205 4.05C80.1232 4.55267 79.5078 5.298 79.0745 6.286C78.6585 7.25667 78.4505 8.43533 78.4505 9.822C78.4505 11.8847 78.9185 13.4967 79.8545 14.658C80.7905 15.8193 82.0992 16.4 83.7805 16.4Z" fill="#7886FF"/>
</svg>
