<svg width="89" height="72" viewBox="0 0 89 72" fill="none" xmlns="http://www.w3.org/2000/svg">
<path d="M28.949 52.7977L15.3962 13.1269L52.2056 31.7708L37.3122 36.8062L36.9234 36.9376L36.739 37.3043L28.949 52.7977Z" fill="#FFBD13" stroke="white" stroke-width="2"/>
<path d="M35 54.8322C35 45.4433 42.6112 37.8322 52 37.8322H72C81.3888 37.8322 89 45.4433 89 54.8322C89 64.221 81.3888 71.8322 72 71.8322H52C42.6112 71.8322 35 64.221 35 54.8322Z" fill="#FFBD13"/>
<path d="M56.956 50.0042V59.8322H54.562V53.6862L52.434 59.8322H50.362L48.22 53.6722V59.8322H45.826V50.0042H48.752L51.426 56.8502L54.044 50.0042H56.956ZM61.5772 51.9222C62.1745 51.9222 62.6879 52.0575 63.1172 52.3282C63.5465 52.5988 63.8639 52.9675 64.0692 53.4342V52.0202H66.4492V59.8322H64.0692V58.4182C63.8639 58.8848 63.5465 59.2535 63.1172 59.5242C62.6879 59.7948 62.1745 59.9302 61.5772 59.9302C60.9332 59.9302 60.3545 59.7715 59.8412 59.4542C59.3372 59.1275 58.9359 58.6608 58.6372 58.0542C58.3479 57.4475 58.2032 56.7382 58.2032 55.9262C58.2032 55.1048 58.3479 54.3955 58.6372 53.7982C58.9359 53.1915 59.3372 52.7295 59.8412 52.4122C60.3545 52.0855 60.9332 51.9222 61.5772 51.9222ZM62.3472 54.0222C61.8339 54.0222 61.4185 54.1902 61.1012 54.5262C60.7932 54.8622 60.6392 55.3288 60.6392 55.9262C60.6392 56.5235 60.7932 56.9902 61.1012 57.3262C61.4185 57.6622 61.8339 57.8302 62.3472 57.8302C62.8512 57.8302 63.2619 57.6575 63.5792 57.3122C63.9059 56.9668 64.0692 56.5048 64.0692 55.9262C64.0692 55.3382 63.9059 54.8762 63.5792 54.5402C63.2619 54.1948 62.8512 54.0222 62.3472 54.0222ZM72.5215 57.7742V59.8322H71.4435C70.5288 59.8322 69.8148 59.6082 69.3015 59.1602C68.7975 58.7028 68.5455 57.9515 68.5455 56.9062V54.0362H67.4955V52.0202H68.5455V50.1022H70.9395V52.0202H72.5075V54.0362H70.9395V56.9482C70.9395 57.2562 71.0002 57.4708 71.1215 57.5922C71.2522 57.7135 71.4668 57.7742 71.7655 57.7742H72.5215ZM78.291 57.7742V59.8322H77.213C76.2983 59.8322 75.5843 59.6082 75.071 59.1602C74.567 58.7028 74.315 57.9515 74.315 56.9062V54.0362H73.265V52.0202H74.315V50.1022H76.709V52.0202H78.277V54.0362H76.709V56.9482C76.709 57.2562 76.7697 57.4708 76.891 57.5922C77.0217 57.7135 77.2363 57.7742 77.535 57.7742H78.291Z" fill="white"/>
</svg>
