<svg width="76" height="72" viewBox="0 0 76 72" fill="none" xmlns="http://www.w3.org/2000/svg">
<path d="M28.949 52.7979L15.3962 13.1271L52.2056 31.7709L37.3122 36.8063L36.9234 36.9378L36.739 37.3044L28.949 52.7979Z" fill="#73CDFF" stroke="white" stroke-width="2"/>
<path d="M35 54.8323C35 45.4434 42.6112 37.8323 52 37.8323H59C68.3888 37.8323 76 45.4434 76 54.8323C76 64.2211 68.3888 71.8323 59 71.8323H52C42.6112 71.8323 35 64.2211 35 54.8323Z" fill="#73CDFF"/>
<path d="M56.956 50.0043V59.8323H54.562V53.6863L52.434 59.8323H50.362L48.22 53.6723V59.8323H45.826V50.0043H48.752L51.426 56.8503L54.044 50.0043H56.956ZM64.7132 49.9343V56.6963C64.7132 57.7323 64.4285 58.5303 63.8592 59.0903C63.2992 59.6503 62.5199 59.9303 61.5212 59.9303C60.4385 59.9303 59.5799 59.6269 58.9452 59.0203C58.3105 58.4043 57.9932 57.5223 57.9932 56.3743H60.3592C60.3592 57.2983 60.7092 57.7603 61.4092 57.7603C62.0159 57.7603 62.3192 57.4056 62.3192 56.6963V49.9343H64.7132Z" fill="white"/>
</svg>
