<svg width="93" height="69" viewBox="0 0 93 69" fill="none" xmlns="http://www.w3.org/2000/svg">
<path d="M30.3627 52.599L14.9434 13.6158L52.5957 30.4926L37.9579 36.2288L37.5758 36.3785L37.4091 36.7535L30.3627 52.599Z" fill="#3DA2FF" stroke="white" stroke-width="2"/>
<path d="M36.0527 52C36.0527 42.6112 43.6639 35 53.0527 35H75.0527C84.4416 35 92.0527 42.6112 92.0527 52C92.0527 61.3888 84.4416 69 75.0527 69H53.0527C43.6639 69 36.0527 61.3888 36.0527 52Z" fill="#3DA2FF"/>
<path d="M52.9827 47.102V53.864C52.9827 54.9 52.6981 55.698 52.1287 56.258C51.5687 56.818 50.7894 57.098 49.7907 57.098C48.7081 57.098 47.8494 56.7947 47.2147 56.188C46.5801 55.572 46.2627 54.69 46.2627 53.542H48.6287C48.6287 54.466 48.9787 54.928 49.6787 54.928C50.2854 54.928 50.5887 54.5733 50.5887 53.864V47.102H52.9827ZM57.5303 49.09C58.1277 49.09 58.641 49.2253 59.0703 49.496C59.4997 49.7667 59.817 50.1353 60.0223 50.602V49.188H62.4023V57H60.0223V55.586C59.817 56.0527 59.4997 56.4213 59.0703 56.692C58.641 56.9627 58.1277 57.098 57.5303 57.098C56.8863 57.098 56.3077 56.9393 55.7943 56.622C55.2903 56.2953 54.889 55.8287 54.5903 55.222C54.301 54.6153 54.1563 53.906 54.1563 53.094C54.1563 52.2727 54.301 51.5633 54.5903 50.966C54.889 50.3593 55.2903 49.8973 55.7943 49.58C56.3077 49.2533 56.8863 49.09 57.5303 49.09ZM58.3003 51.19C57.787 51.19 57.3717 51.358 57.0543 51.694C56.7463 52.03 56.5923 52.4967 56.5923 53.094C56.5923 53.6913 56.7463 54.158 57.0543 54.494C57.3717 54.83 57.787 54.998 58.3003 54.998C58.8043 54.998 59.215 54.8253 59.5323 54.48C59.859 54.1347 60.0223 53.6727 60.0223 53.094C60.0223 52.506 59.859 52.044 59.5323 51.708C59.215 51.3627 58.8043 51.19 58.3003 51.19ZM69.0066 49.104C69.9026 49.104 70.6119 49.4027 71.1346 50C71.6666 50.5973 71.9326 51.4187 71.9326 52.464V57H69.5386V52.744C69.5386 52.2213 69.3986 51.8153 69.1186 51.526C68.8479 51.2273 68.4839 51.078 68.0266 51.078C67.5413 51.078 67.1539 51.232 66.8646 51.54C66.5846 51.848 66.4446 52.2867 66.4446 52.856V57H64.0506V49.188H66.4446V50.616C66.6686 50.1493 66.9999 49.7807 67.4386 49.51C67.8866 49.2393 68.4093 49.104 69.0066 49.104ZM80.9315 52.884C80.9315 53.08 80.9082 53.2947 80.8615 53.528H75.4435C75.4715 54.116 75.6209 54.5407 75.8915 54.802C76.1622 55.054 76.5075 55.18 76.9275 55.18C77.2822 55.18 77.5762 55.0913 77.8095 54.914C78.0429 54.7367 78.1969 54.508 78.2715 54.228H80.8055C80.7029 54.7787 80.4789 55.2733 80.1335 55.712C79.7882 56.1413 79.3495 56.482 78.8175 56.734C78.2855 56.9767 77.6929 57.098 77.0395 57.098C76.2742 57.098 75.5929 56.9393 74.9955 56.622C74.4075 56.2953 73.9455 55.8287 73.6095 55.222C73.2735 54.6153 73.1055 53.906 73.1055 53.094C73.1055 52.2727 73.2689 51.5633 73.5955 50.966C73.9315 50.3593 74.3982 49.8973 74.9955 49.58C75.5929 49.2533 76.2742 49.09 77.0395 49.09C77.8142 49.09 78.4955 49.2487 79.0835 49.566C79.6715 49.8833 80.1242 50.3313 80.4415 50.91C80.7682 51.4793 80.9315 52.1373 80.9315 52.884ZM78.5095 52.52C78.5189 52.0067 78.3789 51.624 78.0895 51.372C77.8095 51.1107 77.4595 50.98 77.0395 50.98C76.6009 50.98 76.2369 51.1107 75.9475 51.372C75.6582 51.6333 75.4949 52.016 75.4575 52.52H78.5095Z" fill="white"/>
</svg>
