<svg width="87" height="73" viewBox="0 0 87 73" fill="none" xmlns="http://www.w3.org/2000/svg">
<path d="M36.1191 35.7809L70.6864 12.0626L62.624 52.529L53.7702 39.5374L53.5391 39.1982L53.1364 39.1192L36.1191 35.7809Z" fill="#CA73FF" stroke="white" stroke-width="2"/>
<path d="M0 55.8326C0 46.4438 7.61116 38.8326 17 38.8326H29C38.3888 38.8326 46 46.4438 46 55.8326V55.8326C46 65.2215 38.3888 72.8326 29 72.8326H17C7.61116 72.8326 0 65.2215 0 55.8326V55.8326Z" fill="#CA73FF"/>
<path d="M19.618 60.8326H17.224L13.22 54.7566V60.8326H10.826V50.9346H13.22L17.224 57.0666V50.9346H19.618V60.8326ZM24.2393 52.9226C24.8366 52.9226 25.35 53.058 25.7793 53.3286C26.2086 53.5993 26.526 53.968 26.7313 54.4346V53.0206H29.1113V60.8326H26.7313V59.4186C26.526 59.8853 26.2086 60.254 25.7793 60.5246C25.35 60.7953 24.8366 60.9306 24.2393 60.9306C23.5953 60.9306 23.0166 60.772 22.5033 60.4546C21.9993 60.128 21.598 59.6613 21.2993 59.0546C21.01 58.448 20.8653 57.7386 20.8653 56.9266C20.8653 56.1053 21.01 55.396 21.2993 54.7986C21.598 54.192 21.9993 53.73 22.5033 53.4126C23.0166 53.086 23.5953 52.9226 24.2393 52.9226ZM25.0093 55.0226C24.496 55.0226 24.0806 55.1906 23.7633 55.5266C23.4553 55.8626 23.3013 56.3293 23.3013 56.9266C23.3013 57.524 23.4553 57.9906 23.7633 58.3266C24.0806 58.6626 24.496 58.8306 25.0093 58.8306C25.5133 58.8306 25.924 58.658 26.2413 58.3126C26.568 57.9673 26.7313 57.5053 26.7313 56.9266C26.7313 56.3386 26.568 55.8766 26.2413 55.5406C25.924 55.1953 25.5133 55.0226 25.0093 55.0226ZM35.1836 58.7746V60.8326H34.1056C33.1909 60.8326 32.4769 60.6086 31.9636 60.1606C31.4596 59.7033 31.2076 58.952 31.2076 57.9066V55.0366H30.1576V53.0206H31.2076V51.1026H33.6016V53.0206H35.1696V55.0366H33.6016V57.9486C33.6016 58.2566 33.6623 58.4713 33.7836 58.5926C33.9143 58.714 34.1289 58.7746 34.4276 58.7746H35.1836Z" fill="white"/>
</svg>
