<svg width="502" height="465" viewBox="0 0 502 465" fill="none" xmlns="http://www.w3.org/2000/svg">
<path d="M165.735 0L165.735 465M396.506 0L396.506 465M204.902 0L204.902 465M434.616 0L434.615 465M19.05 0L19.05 465M243.011 0L243.011 465M472.725 0L472.725 465M51.4074 0L51.4074 465M281.121 0L281.121 465M505.42 1.6276e-09L505.42 465M89.5165 0L89.5165 465M319.23 0L319.23 465M127.626 0L127.626 465M358.397 0L358.397 465M524 152.536L3.07101e-09 152.536M524 357.03L3.07101e-09 357.03M524 186.322L3.07101e-09 186.322M524 391.705L2.79163e-09 391.705M524 16.5038L2.3953e-09 16.5038M524 220.997L3.07101e-09 220.997M524 424.601L2.79163e-09 424.601M524 51.1788L3.07101e-09 51.1787M524 254.783L3.07101e-09 254.783M524 459.276L0 459.276M524 84.9646L3.07101e-09 84.9646M524 288.569L3.07101e-09 288.569M524 117.861L3.07101e-09 117.861M524 323.244L2.88476e-09 323.244" stroke="#E9C6FF" stroke-opacity="0.25"/>
</svg>
