<svg width="157" height="19" viewBox="0 0 157 19" fill="none" xmlns="http://www.w3.org/2000/svg">
<g clip-path="url(#clip0_29_119)">
<path d="M5.8526 8.65985C5.79584 8.58681 5.72084 8.52941 5.63485 8.49322C5.54887 8.45702 5.45483 8.44325 5.36184 8.45324C5.26885 8.46323 5.18006 8.49664 5.10408 8.55024C5.02809 8.60384 4.96749 8.6758 4.92815 8.75916L0.239449 17.9699C0.196621 18.0538 0.176315 18.147 0.18046 18.2407C0.184604 18.3344 0.21306 18.4255 0.263128 18.5054C0.313196 18.5853 0.383214 18.6513 0.466539 18.6971C0.549863 18.7429 0.64373 18.7671 0.73923 18.7673H7.26817C7.37386 18.7693 7.47781 18.7408 7.56716 18.6853C7.65651 18.6298 7.72733 18.5498 7.77084 18.4552C9.17774 15.6176 8.32551 11.2562 5.8526 8.65985Z" fill="#E9C6FF"/>
<path d="M9.29324 0.294695C8.1244 2.06086 7.44324 4.09522 7.31662 6.19806C7.19 8.30091 7.62228 10.3999 8.57101 12.2891L11.7344 18.4552C11.7805 18.5468 11.8517 18.624 11.94 18.6781C12.0282 18.7323 12.1301 18.7612 12.2341 18.7616H18.7631C18.8546 18.7542 18.943 18.7255 19.021 18.6778C19.0989 18.6301 19.1642 18.5649 19.2113 18.4875C19.2585 18.4101 19.2862 18.3228 19.2922 18.2328C19.2981 18.1428 19.2821 18.0527 19.2455 17.97L10.2466 0.294695C10.2035 0.20644 10.1359 0.131947 10.0515 0.0798065C9.96719 0.0276655 9.86956 0 9.76991 0C9.67026 0 9.57263 0.0276655 9.48829 0.0798065C9.40395 0.131947 9.33634 0.20644 9.29324 0.294695Z" fill="#E9C6FF"/>
<path d="M147.227 10.1127L151.968 18.7673H156.18V3.31958H152.829V13.288L151.561 10.3965L147.753 3.31958H142.463V18.7673H145.815V6.98573L147.227 10.1127Z" fill="#E9C6FF"/>
<path d="M121.149 3.31958H117.486V18.7673H121.149V3.31958Z" fill="#E9C6FF"/>
<path d="M113.259 14.1988C113.259 11.4946 111.801 10.2262 107.681 9.35506C105.407 8.86132 104.858 8.36758 104.858 7.65251C104.858 6.75868 105.67 6.38128 107.17 6.38128C108.99 6.38128 110.787 6.92326 112.485 7.67521V4.14243C110.854 3.41289 109.077 3.05125 107.285 3.08401C103.215 3.08401 101.109 4.82345 101.109 7.66954C101.109 9.9396 102.186 11.7585 106.398 12.5587C108.912 13.0751 109.44 13.4752 109.44 14.2981C109.44 15.121 108.912 15.6148 107.129 15.6148C104.99 15.5764 102.893 15.0198 101.025 13.9945V17.7089C102.293 18.319 103.969 19 107.092 19C111.494 19 113.242 17.0733 113.242 14.2045" fill="#E9C6FF"/>
<path d="M98.0117 14.1988C98.0117 11.4946 96.5673 10.2262 92.4361 9.35506C90.1625 8.86132 89.6108 8.36758 89.6108 7.65251C89.6108 6.75868 90.4254 6.38128 91.9219 6.38128C93.7419 6.38128 95.5359 6.92326 97.2346 7.67521V4.14243C95.6034 3.41289 93.8266 3.05125 92.0346 3.08401C87.967 3.08401 85.8581 4.82345 85.8581 7.66954C85.8581 9.9396 86.9356 11.7585 91.1506 12.5587C93.6639 13.0751 94.1897 13.4752 94.1897 14.2981C94.1897 15.121 93.6639 15.6148 91.8786 15.6148C89.7391 15.5764 87.6423 15.0198 85.7743 13.9945V17.7089C87.0454 18.319 88.721 19 91.841 19C96.2466 19 97.9915 17.0733 97.9915 14.2045" fill="#E9C6FF"/>
<path d="M61.1117 15.4275V3.31958H57.4254V18.7673H64.9539L66.1384 15.4275H61.1117Z" fill="#E9C6FF"/>
<path d="M50.3071 18.7673V6.65657H54.6636V3.31958H42.5504V6.65657H46.6209V18.7673H50.3071Z" fill="#E9C6FF"/>
<path d="M37.2059 3.31958H32.3757L26.8867 18.7673H31.0901L31.8701 16.1653C33.7844 16.7179 35.8202 16.7179 37.7346 16.1653L38.5117 18.7673H42.7006L37.2059 3.31958ZM34.7908 13.3816C34.1063 13.3826 33.4253 13.287 32.7685 13.0979L34.7908 6.35579L36.813 13.0979C36.1562 13.2868 35.4752 13.3824 34.7908 13.3816Z" fill="#E9C6FF"/>
<path d="M77.9309 3.31958H73.1006L67.6117 18.7673H71.8006L72.5806 16.1653C74.495 16.7179 76.5308 16.7179 78.4451 16.1653L79.2222 18.7673H83.4111L77.9309 3.31958ZM75.5158 13.3816C74.8313 13.3828 74.1502 13.2873 73.4935 13.0979L75.5158 6.35579L77.538 13.0979C76.8813 13.2873 76.2002 13.3829 75.5158 13.3816Z" fill="#E9C6FF"/>
<path d="M134.346 3.31958H129.515L124.026 18.7673H128.215L128.992 16.1653C130.907 16.7179 132.943 16.7179 134.857 16.1653L135.634 18.7673H139.826L134.346 3.31958ZM131.93 13.3816C131.246 13.3824 130.565 13.2868 129.908 13.0979L131.93 6.35579L133.953 13.0979C133.296 13.2868 132.615 13.3824 131.93 13.3816Z" fill="#E9C6FF"/>
</g>
<defs>
<clipPath id="clip0_29_119">
<rect width="156" height="19" fill="white" transform="translate(0.179932)"/>
</clipPath>
</defs>
</svg>
