<svg width="79" height="27" viewBox="0 0 79 27" fill="none" xmlns="http://www.w3.org/2000/svg">
<g clip-path="url(#clip0_29_112)">
<path d="M33.373 13.8463C33.373 17.594 30.5082 20.3557 26.9925 20.3557C23.4767 20.3557 20.6119 17.594 20.6119 13.8463C20.6119 10.0722 23.4767 7.33698 26.9925 7.33698C30.5082 7.33698 33.373 10.0722 33.373 13.8463ZM30.5799 13.8463C30.5799 11.5044 28.9195 9.90198 26.9925 9.90198C25.0654 9.90198 23.405 11.5044 23.405 13.8463C23.405 16.1648 25.0654 17.7907 26.9925 17.7907C28.9195 17.7907 30.5799 16.1619 30.5799 13.8463Z" fill="#E9C6FF"/>
<path d="M47.1376 13.8463C47.1376 17.594 44.2728 20.3557 40.7571 20.3557C37.2414 20.3557 34.3766 17.594 34.3766 13.8463C34.3766 10.0751 37.2414 7.33698 40.7571 7.33698C44.2728 7.33698 47.1376 10.0722 47.1376 13.8463ZM44.3445 13.8463C44.3445 11.5044 42.6842 9.90198 40.7571 9.90198C38.83 9.90198 37.1697 11.5044 37.1697 13.8463C37.1697 16.1648 38.83 17.7907 40.7571 17.7907C42.6842 17.7907 44.3445 16.1619 44.3445 13.8463Z" fill="#E9C6FF"/>
<path d="M60.3289 7.73024V19.4165C60.3289 24.2237 57.5587 26.1871 54.2839 26.1871C51.2011 26.1871 49.3458 24.077 48.6461 22.3513L51.0778 21.3153C51.5108 22.3748 52.5719 23.625 54.281 23.625C56.3772 23.625 57.6763 22.3014 57.6763 19.8098V18.8736H57.5788C56.9536 19.6631 55.7492 20.3527 54.2294 20.3527C51.0491 20.3527 48.1356 17.5177 48.1356 13.8698C48.1356 10.1955 51.0491 7.33698 54.2294 7.33698C55.7464 7.33698 56.9508 8.02665 57.5788 8.79263H57.6763V7.73317H60.3289V7.73024ZM57.8742 13.8698C57.8742 11.5777 56.3801 9.90198 54.4789 9.90198C52.5518 9.90198 50.9373 11.5777 50.9373 13.8698C50.9373 16.1384 52.5518 17.7907 54.4789 17.7907C56.3801 17.7907 57.8742 16.1384 57.8742 13.8698Z" fill="#E9C6FF"/>
<path d="M64.702 0.880432V19.9565H61.9778V0.880432H64.702Z" fill="#E9C6FF"/>
<path d="M75.318 15.9887L77.486 17.4678C76.7863 18.5273 75.1001 20.3527 72.1866 20.3527C68.5733 20.3527 65.8749 17.4943 65.8749 13.8434C65.8749 9.97241 68.5963 7.33405 71.874 7.33405C75.1747 7.33405 76.7891 10.0223 77.3168 11.475L77.6064 12.2146L69.1039 15.8185C69.7548 17.1245 70.7671 17.7907 72.1866 17.7907C73.6089 17.7907 74.5954 17.0746 75.318 15.9887ZM68.645 13.6468L74.3287 11.2314C74.0161 10.4185 73.0755 9.85209 71.9686 9.85209C70.5491 9.85209 68.5733 11.1346 68.645 13.6468Z" fill="#E9C6FF"/>
<path d="M10.2999 12.1529V9.39131H19.3932C19.4821 9.87261 19.528 10.442 19.528 11.0583C19.528 13.1302 18.9745 15.6923 17.1908 17.5177C15.4559 19.3666 13.2392 20.3527 10.3028 20.3527C4.85997 20.3527 0.283203 15.8155 0.283203 10.2453C0.283203 4.67511 4.85997 0.137939 10.3028 0.137939C13.3138 0.137939 15.4588 1.34707 17.0704 2.92305L15.1663 4.87174C14.0106 3.7624 12.4449 2.89957 10.2999 2.89957C6.32534 2.89957 3.21681 6.17772 3.21681 10.2453C3.21681 14.3129 6.32534 17.5911 10.2999 17.5911C12.8779 17.5911 14.3461 16.5316 15.2867 15.569C16.0495 14.7884 16.5514 13.6732 16.7492 12.15L10.2999 12.1529Z" fill="#E9C6FF"/>
</g>
<defs>
<clipPath id="clip0_29_112">
<rect width="78" height="27" fill="white" transform="translate(0.179932)"/>
</clipPath>
</defs>
</svg>
