<svg width="100" height="27" viewBox="0 0 100 27" fill="none" xmlns="http://www.w3.org/2000/svg">
<g clip-path="url(#clip0_29_203)">
<path d="M31.2603 12.9802C31.2603 17.3947 34.0953 20.4727 38.0238 20.4727C41.9523 20.4727 44.7873 17.3947 44.7873 12.9802C44.7873 8.56573 41.9523 5.48773 38.0238 5.48773C34.0953 5.48773 31.2603 8.56573 31.2603 12.9802ZM42.1953 12.9802C42.1953 16.1392 40.474 18.1845 38.0238 18.1845C35.5735 18.1845 33.8523 16.1392 33.8523 12.9802C33.8523 9.82123 35.5735 7.77598 38.0238 7.77598C40.474 7.77598 42.1953 9.82123 42.1953 12.9802Z" fill="#E9C6FF"/>
<path d="M52.0866 20.4728C55.0634 20.4728 56.7644 17.9618 56.7644 14.9445C56.7644 11.9273 55.0634 9.41626 52.0866 9.41626C50.7096 9.41626 49.6971 9.96301 49.0289 10.7528V9.61876H46.5989V23.895H49.0289V19.1363C49.6971 19.926 50.7096 20.4728 52.0866 20.4728ZM48.9681 14.6408C48.9681 12.636 50.1021 11.5425 51.6006 11.5425C53.3624 11.5425 54.3141 12.9195 54.3141 14.9445C54.3141 16.9695 53.3624 18.3465 51.6006 18.3465C50.1021 18.3465 48.9681 17.2328 48.9681 15.2685V14.6408Z" fill="#E9C6FF"/>
<path d="M63.3405 20.4728C65.4668 20.4728 67.1475 19.359 67.8968 17.496L65.811 16.7063C65.487 17.7998 64.5353 18.4073 63.3405 18.4073C61.7813 18.4073 60.6878 17.2935 60.5055 15.471H67.9575V14.661C67.9575 11.745 66.3173 9.41626 63.2393 9.41626C60.1613 9.41626 58.1768 11.826 58.1768 14.9445C58.1768 18.225 60.303 20.4728 63.3405 20.4728ZM63.219 11.4615C64.758 11.4615 65.487 12.474 65.5073 13.6485H60.627C60.9915 12.2108 61.9635 11.4615 63.219 11.4615Z" fill="#E9C6FF"/>
<path d="M69.7808 20.25H72.2108V14.013C72.2108 12.4943 73.3245 11.6843 74.418 11.6843C75.7545 11.6843 76.281 12.636 76.281 13.9523V20.25H78.711V13.2435C78.711 10.9553 77.3745 9.41626 75.147 9.41626C73.77 9.41626 72.8183 10.044 72.2108 10.7528V9.61876H69.7808V20.25Z" fill="#E9C6FF"/>
<path d="M85.8281 5.71051L80.3201 20.25H82.8918L84.1271 16.929H90.4046L91.6601 20.25H94.2723L88.7643 5.71051H85.8281ZM87.2456 8.58601L89.5541 14.661H84.9776L87.2456 8.58601Z" fill="#E9C6FF"/>
<path d="M98.4438 5.75269H95.8518V20.2922H98.4438V5.75269Z" fill="#E9C6FF"/>
<path d="M25.322 11.0506C25.9346 9.21206 25.7236 7.19803 24.744 5.52572C23.2708 2.96072 20.3093 1.6411 17.4169 2.2621C16.1302 0.812534 14.2815 -0.0118093 12.3434 3.1618e-06C9.38693 -0.00674684 6.76371 1.89675 5.85415 4.70982C3.95487 5.09878 2.31546 6.28763 1.35612 7.9726C-0.12804 10.5308 0.210304 13.7557 2.19312 15.9494C1.58055 17.7879 1.79149 19.802 2.77109 21.4743C4.24427 24.0393 7.20584 25.3589 10.0982 24.7379C11.3841 26.1875 13.2336 27.0118 15.1717 26.9992C18.1299 27.0068 20.7539 25.1016 21.6635 22.286C23.5628 21.897 25.2022 20.7082 26.1615 19.0232C27.644 16.4649 27.3048 13.2427 25.3228 11.0489L25.322 11.0506ZM15.1734 25.2349C13.9896 25.2366 12.8429 24.8223 11.9342 24.0638C11.9756 24.0418 12.0473 24.0022 12.0937 23.9735L17.4701 20.8685C17.7451 20.7124 17.9139 20.4196 17.9122 20.1032V12.5238L20.1844 13.8358C20.2089 13.8476 20.2249 13.8713 20.2283 13.8983V20.1749C20.2249 22.966 17.9645 25.229 15.1734 25.2349ZM4.30249 20.5917C3.70934 19.5674 3.49587 18.3668 3.69921 17.2015C3.73887 17.2252 3.8089 17.2682 3.85868 17.2969L9.23505 20.4019C9.50759 20.5613 9.84509 20.5613 10.1185 20.4019L16.682 16.6118V19.2358C16.6837 19.2628 16.671 19.289 16.6499 19.3058L11.2153 22.4438C8.79462 23.8376 5.70312 23.0091 4.30334 20.5917H4.30249ZM2.88752 8.856C3.47815 7.83 4.41049 7.04532 5.52087 6.63778C5.52087 6.68419 5.51834 6.76603 5.51834 6.82341V13.0343C5.51665 13.3498 5.6854 13.6426 5.95962 13.7987L12.5231 17.588L10.2509 18.9C10.2281 18.9152 10.1995 18.9177 10.1741 18.9068L4.73871 15.7663C2.32305 14.3674 1.49449 11.2767 2.88668 8.85685L2.88752 8.856ZM21.5563 13.2005L14.9928 9.41035L17.265 8.09916C17.2878 8.08397 17.3165 8.08144 17.3418 8.09241L22.7772 11.2303C25.1971 12.6284 26.0265 15.7241 24.6284 18.144C24.037 19.1683 23.1055 19.953 21.9959 20.3614V13.9649C21.9985 13.6493 21.8306 13.3574 21.5572 13.2005H21.5563ZM23.8176 9.79678C23.7779 9.77232 23.7079 9.73013 23.6581 9.70144L18.2817 6.59644C18.0092 6.43697 17.6717 6.43697 17.3983 6.59644L10.8348 10.3866V7.7625C10.8331 7.7355 10.8458 7.70935 10.8669 7.69247L16.3015 4.5571C18.7222 3.16069 21.8171 3.99178 23.2126 6.41335C23.8024 7.43597 24.0159 8.63325 23.8159 9.79678H23.8176ZM9.59955 14.4737L7.32649 13.1617C7.30202 13.1498 7.28599 13.1262 7.28262 13.0992V6.82257C7.2843 4.02807 9.55146 1.76344 12.346 1.76513C13.5281 1.76513 14.6722 2.18025 15.5809 2.93625C15.5396 2.95819 15.4687 2.99785 15.4214 3.02653L10.0451 6.13153C9.76999 6.28763 9.60124 6.57957 9.60293 6.89597L9.59955 14.472V14.4737ZM10.834 11.8125L13.7576 10.1242L16.6811 11.8117V15.1875L13.7576 16.875L10.834 15.1875V11.8125Z" fill="#E9C6FF"/>
</g>
<defs>
<clipPath id="clip0_29_203">
<rect width="99.5625" height="27" fill="white" transform="translate(0.257568)"/>
</clipPath>
</defs>
</svg>
