<svg width="135" height="67" viewBox="0 0 135 67" fill="none" xmlns="http://www.w3.org/2000/svg">
<path d="M8.55823 19.4523H36.6536V47.5477H8.55823V19.4523Z" fill="#E9C6FF"/>
<path d="M21.6702 35.3727L16.8015 26.2886H19.0494L21.8589 32.0014C21.8589 32.0952 21.9527 32.189 22.0465 32.2828C22.1403 32.3766 22.1403 32.4704 22.2341 32.6569L22.3279 32.7507V32.8445C22.4217 33.0321 22.4217 33.1259 22.5155 33.3135C22.6093 33.4073 22.6093 33.5949 22.7031 33.6876C22.7969 33.4062 22.9845 33.2186 23.0772 32.8445C23.171 32.5631 23.3586 32.2828 23.5462 32.0014L26.3557 26.2886H28.416L23.5473 35.4676V41.2742H21.6746L21.6702 35.3727Z" fill="white"/>
<path d="M47.9007 29.3292C49.0844 29.3292 50.1117 29.6453 50.9023 30.2784L50.1128 31.2276C49.4015 30.7541 48.6913 30.4381 47.8236 30.4381C46.4803 30.4381 45.4541 31.1494 44.9013 32.4928C44.5853 33.2822 44.4279 34.3096 44.4279 35.6529C44.4279 36.6803 44.5842 37.549 44.8232 38.1811C45.4552 39.6819 46.4825 40.3921 48.0615 40.3921C48.9303 40.3921 49.7209 40.1553 50.4311 39.6026L51.2205 40.6299C50.1932 41.2619 49.0989 41.5791 47.904 41.5791C46.4825 41.5791 45.2977 41.0263 44.3497 39.8415C43.4005 38.7249 43.0063 37.2352 43.0063 35.4195C43.0063 33.6038 43.4798 32.1812 44.4279 30.9975C45.2966 29.9702 46.4825 29.3382 47.904 29.3382L47.9007 29.3292ZM52.4031 37.1493C52.4031 35.7277 52.7191 34.6211 53.4304 33.8328C54.1417 33.0444 55.0105 32.5687 56.116 32.5687C57.3801 32.5687 58.4052 33.0422 59.1176 34.0695C59.6704 34.859 59.9071 35.9656 59.9071 37.3078C59.9071 38.8879 59.4336 40.152 58.5637 40.9415C57.9097 41.5161 57.0647 41.8259 56.1942 41.8102C55.0105 41.8102 54.1395 41.4149 53.4293 40.5462C52.718 39.7567 52.4031 38.5719 52.4031 37.1493ZM57.9328 34.8601C57.5375 34.1488 56.9837 33.7434 56.116 33.7434C55.2484 33.7434 54.6945 34.0594 54.2992 34.6926C53.9832 35.1661 53.9039 35.9567 53.9039 36.9818C53.9039 38.3251 54.0602 39.2709 54.4566 39.8259C54.8531 40.3809 55.4058 40.6947 56.1942 40.6947C57.1433 40.6947 57.7743 40.2212 58.0903 39.3513C58.2466 38.8779 58.327 38.2347 58.327 37.4552C58.4052 36.2716 58.2488 35.4006 57.9317 34.8489L57.9328 34.8601ZM62.433 35.0164C62.433 34.1477 62.3548 33.4363 62.117 32.8948L63.4603 32.5787C63.6971 32.974 63.7763 33.4475 63.7763 33.8428V33.921C64.0924 33.605 64.4084 33.2889 64.893 33.0522C65.4458 32.7362 65.9203 32.5787 66.3938 32.5787C67.1051 32.5787 67.7372 32.8948 68.1313 33.4475C68.2095 33.6038 68.3681 33.8428 68.4474 34.0003C69.3965 33.0511 70.2642 32.5787 71.2122 32.5787C71.8443 32.5787 72.3959 32.8155 72.7923 33.2108C73.1876 33.6842 73.4243 34.2381 73.4243 34.8701V41.425H71.9816V34.9483C71.9816 34.0795 71.5863 33.6842 70.8649 33.6842C70.4696 33.6842 69.9962 33.8406 69.6009 34.1577C69.4445 34.314 69.1274 34.553 68.7321 34.869L68.5758 35.0254V41.4239H67.075V35.2532C67.075 34.7004 66.9968 34.304 66.8382 34.1365C66.6015 33.8998 66.3648 33.8205 65.9695 33.8205C65.3374 33.8205 64.6261 34.2158 63.7585 35.0041V41.4808H62.4341L62.433 35.0164ZM75.8631 29.0132L77.2847 28.6972C77.441 29.3292 77.5214 30.0406 77.5214 30.9082V33.8305C78.3109 33.041 79.1808 32.6469 80.0495 32.6469C81.0769 32.6469 81.9456 33.0422 82.4984 33.8305C83.1304 34.62 83.4475 35.7266 83.4475 37.0689C83.4475 38.4904 83.1315 39.597 82.4984 40.4658C81.8652 41.3345 80.9976 41.7298 79.9702 41.7298C79.5031 41.7386 79.0412 41.6299 78.6269 41.4138C78.1534 41.1771 77.8374 40.9403 77.5996 40.6243L77.3628 41.5735H76.0195C76.1758 41.1782 76.2562 40.4568 76.2562 39.3625V31.0657C76.178 30.1165 76.0999 29.4063 75.8609 29.011L75.8631 29.0132ZM78.1523 34.3732C77.9156 34.5296 77.6788 34.7685 77.5203 35.0053V39.53C78.073 40.2413 78.7844 40.5573 79.642 40.5573C80.3533 40.5573 80.906 40.3206 81.222 39.7678C81.6173 39.1358 81.8541 38.267 81.8541 37.003C81.8541 35.8863 81.6977 35.1069 81.3013 34.6334C80.9853 34.1599 80.4326 33.9221 79.642 33.9221C79.1685 33.8439 78.6146 34.0003 78.1411 34.3956L78.1523 34.3732ZM85.5 30.1299C85.5 29.8139 85.5782 29.5771 85.816 29.3404C86.0538 29.1037 86.2895 29.0244 86.6055 29.0244C86.9215 29.0244 87.1582 29.1026 87.395 29.3404C87.6317 29.5783 87.711 29.8139 87.711 30.1299C87.711 30.4459 87.6328 30.6826 87.395 30.9194C87.1571 31.1561 86.9215 31.2354 86.6055 31.2354C86.2895 31.2354 86.0527 31.1572 85.816 30.9194C85.5793 30.6815 85.5 30.4459 85.5 30.1299ZM85.8283 41.4953V32.8077L87.2498 32.5709V41.4976L85.8283 41.4953ZM90.3195 35.0164C90.3195 34.3844 90.3195 33.9891 90.2413 33.8328C90.2413 33.596 90.085 33.3593 89.9253 32.964L91.2687 32.5687C91.4848 32.983 91.5934 33.4449 91.5847 33.912C92.4535 33.0433 93.4015 32.5687 94.3496 32.5687C94.823 32.5687 95.2183 32.6469 95.6136 32.8847C96.0089 33.1226 96.3249 33.4375 96.4824 33.8339C96.6387 34.1499 96.7191 34.4659 96.7191 34.8612V41.4964H95.3758V35.5725C95.3758 34.8612 95.2976 34.3889 95.0598 34.151C94.9366 34.0245 94.7892 33.9242 94.6262 33.8563C94.4633 33.7883 94.2882 33.7541 94.1117 33.7557C93.7957 33.7557 93.3222 33.912 92.8476 34.151C92.4087 34.3753 92.0087 34.6686 91.6629 35.0198V41.4964H90.3195V35.0164ZM99.8782 34.7004L99.1669 33.7512C100.351 32.9618 101.536 32.5676 102.8 32.5676C104.065 32.5676 104.855 33.041 105.249 33.9109C105.406 34.2269 105.406 34.7004 105.406 35.4117V35.8852L105.328 38.7293V39.1246C105.328 39.5981 105.328 39.9141 105.406 40.152C105.484 40.468 105.722 40.7047 106.038 40.8633L105.326 41.8125C104.694 41.5757 104.299 41.1804 104.143 40.5484C103.353 41.3379 102.483 41.7321 101.615 41.7321C100.746 41.7321 100.035 41.4953 99.4929 41.0207C99.0195 40.6254 98.7816 39.9934 98.7816 39.2039C98.7608 38.7518 98.8593 38.3021 99.0673 37.9001C99.2753 37.4981 99.5853 37.1579 99.9664 36.9136C100.756 36.3609 101.941 36.1242 103.363 36.1242H103.995V35.4921C103.995 34.7808 103.917 34.3085 103.679 34.1488C103.53 33.9869 103.346 33.8605 103.141 33.7786C102.936 33.6967 102.716 33.6614 102.496 33.6753C102.022 33.6753 101.468 33.8316 100.836 34.0706L99.8871 34.7026L99.8782 34.7004ZM104.066 39.3614L104.144 37.0722H103.433C102.168 37.0722 101.378 37.3089 100.904 37.7835C100.588 38.0995 100.431 38.573 100.431 39.205C100.431 40.2324 100.904 40.7851 101.932 40.7851C102.38 40.7595 102.813 40.614 103.187 40.364C103.56 40.114 103.859 39.7686 104.053 39.3636L104.066 39.3614ZM109.91 32.8043H112.121L111.726 33.921H109.909V39.53C109.909 40.0035 109.987 40.3195 110.146 40.5573C110.302 40.7137 110.619 40.8733 111.015 40.8733C111.331 40.8733 111.647 40.7952 111.883 40.717L112.04 41.5858C111.566 41.8225 111.091 41.9018 110.539 41.9018C109.196 41.9018 108.565 41.2698 108.565 39.9275V33.9243H107.38V32.8077H108.497V32.6513C108.497 32.495 108.575 31.8618 108.653 30.8345V30.5967L110.074 30.2806C109.918 31.2298 109.918 32.0975 109.918 32.8088L109.91 32.8043ZM113.544 37.1481C113.544 35.7266 113.86 34.62 114.571 33.8316C115.203 33.0422 116.151 32.5676 117.257 32.5676C118.521 32.5676 119.546 33.041 120.258 34.0684C120.811 34.8579 121.048 35.9645 121.048 37.3067C121.048 38.8868 120.574 40.1509 119.705 40.9403C119.051 41.5149 118.206 41.8247 117.335 41.8091C116.151 41.8091 115.28 41.4138 114.57 40.545C113.938 39.7556 113.544 38.5708 113.544 37.1481ZM119.153 34.859C118.758 34.1477 118.204 33.7423 117.336 33.7423C116.468 33.7423 115.915 34.0583 115.519 34.6915C115.203 35.1649 115.124 35.9555 115.124 36.9806C115.124 38.324 115.28 39.2698 115.677 39.8248C116.073 40.3798 116.626 40.6936 117.414 40.6936C118.363 40.6936 118.994 40.2201 119.31 39.3502C119.467 38.8767 119.547 38.2335 119.547 37.4541C119.547 36.2704 119.391 35.3994 119.152 34.8478L119.153 34.859ZM123.653 34.8567C123.653 34.0673 123.575 33.4352 123.337 32.9606L124.68 32.5653C124.897 32.9796 125.005 33.4415 124.996 33.9087V34.065C125.708 33.1159 126.497 32.6435 127.445 32.6435C127.602 32.6435 127.761 32.6435 127.919 32.7217L127.366 34.2225C127.21 34.1443 127.05 34.1443 126.971 34.1443C126.655 34.1443 126.259 34.2225 125.943 34.4603C125.627 34.6982 125.311 34.9338 125.154 35.2498C125.05 35.5551 124.997 35.8754 124.996 36.1979V41.6472H123.653V34.8567Z" fill="#E9C6FF"/>
</svg>
