<svg width="122" height="27" viewBox="0 0 122 27" fill="none" xmlns="http://www.w3.org/2000/svg">
<g clip-path="url(#clip0_29_183)">
<path d="M37.9428 4.21661C37.4983 2.5561 36.1933 1.25118 34.5328 0.806687C31.5262 0.000244382 19.4644 0.000244141 19.4644 0.000244141C19.4644 0.000244141 7.40274 0.000244382 4.39604 0.806687C2.73554 1.25118 1.43063 2.5561 0.98613 4.21661C0.179688 7.2233 0.179688 13.5002 0.179688 13.5002C0.179688 13.5002 0.179688 19.7772 0.98613 22.7839C1.43063 24.4444 2.73554 25.7493 4.39604 26.1937C7.40274 27.0002 19.4644 27.0002 19.4644 27.0002C19.4644 27.0002 31.5262 27.0002 34.5328 26.1937C36.1933 25.7493 37.4983 24.4444 37.9428 22.7839C38.7492 19.7772 38.7492 13.5002 38.7492 13.5002C38.7492 13.5002 38.746 7.2233 37.9428 4.21661Z" fill="#E9C6FF"/>
<path d="M15.604 19.2853L25.6242 13.5006L15.604 7.71576V19.2853Z" fill="white"/>
<path d="M46.8929 17.5549L42.5623 1.91498H46.3405L47.8582 9.00468C48.2455 10.7509 48.528 12.24 48.7122 13.4719H48.8233C48.9503 12.5892 49.2361 11.1097 49.6774 9.03009L51.2489 1.91498H55.0272L50.6425 17.5549V25.0574H46.8898V17.5549H46.8929Z" fill="#E9C6FF"/>
<path d="M56.1638 24.5615C55.4018 24.0471 54.8588 23.247 54.535 22.1612C54.2144 21.0754 54.0525 19.634 54.0525 17.8305V15.3763C54.0525 13.557 54.2366 12.0934 54.6049 10.9917C54.9732 9.88997 55.5479 9.08352 56.3289 8.57871C57.11 8.07389 58.1354 7.81989 59.4055 7.81989C60.6564 7.81989 61.6565 8.07706 62.4121 8.59141C63.1646 9.10574 63.717 9.91219 64.0662 11.0044C64.4155 12.0997 64.5902 13.557 64.5902 15.3763V17.8305C64.5902 19.634 64.4187 21.0817 64.0791 22.1739C63.7393 23.2693 63.1868 24.0694 62.4248 24.5742C61.6628 25.0791 60.6278 25.333 59.3229 25.333C57.9767 25.3361 56.9258 25.0758 56.1638 24.5615ZM60.4373 21.9136C60.6468 21.3612 60.7548 20.4626 60.7548 19.2117V13.9444C60.7548 12.7316 60.6501 11.8426 60.4373 11.2838C60.2245 10.7218 59.8532 10.4424 59.3196 10.4424C58.8054 10.4424 58.4403 10.7218 58.2307 11.2838C58.018 11.8458 57.9132 12.7316 57.9132 13.9444V19.2117C57.9132 20.4626 58.0147 21.3643 58.218 21.9136C58.4212 22.466 58.7863 22.7422 59.3196 22.7422C59.8532 22.7422 60.2245 22.466 60.4373 21.9136Z" fill="#E9C6FF"/>
<path d="M76.8804 25.0606H73.9023L73.5721 22.9905H73.4896C72.6799 24.5526 71.467 25.3336 69.8479 25.3336C68.7271 25.3336 67.8985 24.9653 67.3651 24.232C66.8317 23.4953 66.5649 22.346 66.5649 20.784V8.15069H70.3718V20.5616C70.3718 21.3173 70.4543 21.8538 70.6194 22.1746C70.7845 22.4952 71.0607 22.6571 71.448 22.6571C71.7782 22.6571 72.0957 22.5556 72.4006 22.3524C72.7054 22.1491 72.9276 21.8919 73.0768 21.5809V8.14752H76.8804V25.0606Z" fill="#E9C6FF"/>
<path d="M87.2216 4.97828H83.4434V25.0599H79.7192V4.97828H75.9409V1.9176H87.2216V4.97828Z" fill="#E9C6FF"/>
<path d="M96.4034 25.0606H93.4253L93.0951 22.9905H93.0126C92.203 24.5526 90.9901 25.3336 89.3708 25.3336C88.25 25.3336 87.4214 24.9653 86.888 24.232C86.3547 23.4953 86.0879 22.346 86.0879 20.784V8.15069H89.8947V20.5616C89.8947 21.3173 89.9772 21.8538 90.1423 22.1746C90.3074 22.4952 90.5836 22.6571 90.9711 22.6571C91.3012 22.6571 91.6187 22.5556 91.9235 22.3524C92.2283 22.1491 92.4506 21.8919 92.5997 21.5809V8.14752H96.4034V25.0606Z" fill="#E9C6FF"/>
<path d="M109.002 10.8523C108.77 9.78549 108.398 9.01397 107.884 8.53454C107.37 8.05513 106.662 7.81701 105.76 7.81701C105.062 7.81701 104.408 8.01385 103.801 8.41072C103.195 8.80759 102.725 9.32512 102.395 9.96963H102.366V1.06067H98.699V25.0571H101.842L102.229 23.4569H102.312C102.607 24.0284 103.049 24.476 103.636 24.8095C104.223 25.1397 104.878 25.3048 105.595 25.3048C106.881 25.3048 107.83 24.7111 108.437 23.5267C109.043 22.3393 109.348 20.4883 109.348 17.9674V15.2909C109.348 13.4018 109.23 11.9191 109.002 10.8523ZM105.512 17.7514C105.512 18.9833 105.462 19.9486 105.36 20.647C105.258 21.3455 105.09 21.8441 104.849 22.1361C104.611 22.4313 104.287 22.5774 103.884 22.5774C103.569 22.5774 103.28 22.5044 103.014 22.3552C102.747 22.2091 102.531 21.9869 102.366 21.6948V12.0969C102.493 11.6365 102.715 11.2618 103.03 10.9666C103.341 10.6713 103.684 10.5252 104.049 10.5252C104.436 10.5252 104.735 10.6777 104.944 10.9793C105.157 11.2841 105.303 11.7921 105.386 12.5096C105.468 13.2271 105.509 14.2463 105.509 15.5702V17.7514H105.512Z" fill="#E9C6FF"/>
<path d="M114.748 18.7261C114.748 19.8119 114.78 20.6248 114.844 21.1677C114.907 21.7106 115.04 22.1044 115.244 22.3552C115.447 22.6028 115.758 22.7266 116.18 22.7266C116.749 22.7266 117.142 22.5044 117.352 22.0631C117.565 21.6217 117.679 20.8852 117.698 19.8565L120.981 20.0501C121 20.1962 121.009 20.3993 121.009 20.6565C121.009 22.2186 120.581 23.387 119.727 24.1585C118.873 24.9301 117.663 25.3174 116.101 25.3174C114.225 25.3174 112.91 24.73 112.158 23.5521C111.402 22.3742 111.027 20.555 111.027 18.0911V15.1384C111.027 12.6016 111.418 10.7475 112.199 9.57907C112.98 8.41068 114.317 7.82648 116.212 7.82648C117.517 7.82648 118.52 8.0646 119.219 8.54403C119.917 9.02344 120.409 9.76638 120.695 10.7792C120.981 11.792 121.124 13.189 121.124 14.9733V17.8689H114.748V18.7261ZM115.231 10.757C115.037 10.9951 114.91 11.3856 114.844 11.9285C114.78 12.4715 114.748 13.2938 114.748 14.3987V15.6116H117.533V14.3987C117.533 13.3128 117.495 12.4905 117.422 11.9285C117.349 11.3666 117.215 10.9729 117.022 10.7411C116.828 10.5125 116.53 10.395 116.126 10.395C115.72 10.3982 115.421 10.5189 115.231 10.757Z" fill="#E9C6FF"/>
</g>
<defs>
<clipPath id="clip0_29_183">
<rect width="120.944" height="27" fill="white" transform="translate(0.179932)"/>
</clipPath>
</defs>
</svg>
